<mxfile host="Electron" modified="2024-04-30T23:16:35.635Z" agent="Mozilla/5.0 (X11; Linux x86_64) AppleWebKit/537.36 (KHTML, like Gecko) draw.io/24.2.5 Chrome/120.0.6099.109 Electron/28.1.0 Safari/537.36" etag="KjpP-Xu8Fy4_sKhvkm_X" version="24.2.5" type="device">
  <diagram id="C5RBs43oDa-KdzZeNtuy" name="Page-1">
    <mxGraphModel dx="3027" dy="5583" grid="1" gridSize="10" guides="1" tooltips="1" connect="1" arrows="1" fold="1" page="1" pageScale="1" pageWidth="827" pageHeight="1169" background="none" math="0" shadow="0">
      <root>
        <mxCell id="WIyWlLk6GJQsqaUBKTNV-0" />
        <mxCell id="WIyWlLk6GJQsqaUBKTNV-1" parent="WIyWlLk6GJQsqaUBKTNV-0" />
        <mxCell id="HCuCCPsoGUSkc76l4n_5-96" value="" style="endArrow=classic;html=1;rounded=0;fillColor=#1ba1e2;strokeColor=#006EAF;edgeStyle=orthogonalEdgeStyle;" parent="WIyWlLk6GJQsqaUBKTNV-1" source="HCuCCPsoGUSkc76l4n_5-95" target="HCuCCPsoGUSkc76l4n_5-0" edge="1">
          <mxGeometry width="50" height="50" relative="1" as="geometry">
            <mxPoint x="60" y="250" as="sourcePoint" />
            <mxPoint x="110" y="200" as="targetPoint" />
            <Array as="points">
              <mxPoint x="30" y="1450" />
              <mxPoint x="30" y="297" />
            </Array>
          </mxGeometry>
        </mxCell>
        <mxCell id="HCuCCPsoGUSkc76l4n_5-120" value="" style="endArrow=classic;html=1;rounded=0;fillColor=#1ba1e2;strokeColor=#006EAF;edgeStyle=orthogonalEdgeStyle;" parent="WIyWlLk6GJQsqaUBKTNV-1" target="HCuCCPsoGUSkc76l4n_5-14" edge="1" source="HCuCCPsoGUSkc76l4n_5-104">
          <mxGeometry width="50" height="50" relative="1" as="geometry">
            <mxPoint x="160" y="2468" as="sourcePoint" />
            <mxPoint x="90" y="1830" as="targetPoint" />
            <Array as="points">
              <mxPoint x="800" y="2460" />
              <mxPoint x="800" y="2052" />
            </Array>
          </mxGeometry>
        </mxCell>
        <mxCell id="HCuCCPsoGUSkc76l4n_5-122" value="" style="endArrow=classic;html=1;rounded=0;fillColor=#1ba1e2;strokeColor=#006EAF;edgeStyle=orthogonalEdgeStyle;" parent="WIyWlLk6GJQsqaUBKTNV-1" source="HCuCCPsoGUSkc76l4n_5-103" target="HCuCCPsoGUSkc76l4n_5-13" edge="1">
          <mxGeometry width="50" height="50" relative="1" as="geometry">
            <mxPoint x="50" y="859" as="sourcePoint" />
            <mxPoint x="59" y="766" as="targetPoint" />
            <Array as="points">
              <mxPoint x="780" y="2480" />
              <mxPoint x="780" y="2030" />
            </Array>
          </mxGeometry>
        </mxCell>
        <mxCell id="HCuCCPsoGUSkc76l4n_5-123" value="" style="endArrow=classic;html=1;rounded=0;fillColor=#1ba1e2;strokeColor=#006EAF;edgeStyle=orthogonalEdgeStyle;" parent="WIyWlLk6GJQsqaUBKTNV-1" source="HCuCCPsoGUSkc76l4n_5-65" target="HCuCCPsoGUSkc76l4n_5-16" edge="1">
          <mxGeometry width="50" height="50" relative="1" as="geometry">
            <mxPoint x="50" y="878" as="sourcePoint" />
            <mxPoint x="50" y="740" as="targetPoint" />
            <Array as="points">
              <mxPoint x="790" y="2520" />
              <mxPoint x="790" y="2080" />
            </Array>
          </mxGeometry>
        </mxCell>
        <mxCell id="LxlmvngEwypOwOj6dEhx-34" value="" style="endArrow=classic;html=1;rounded=0;edgeStyle=orthogonalEdgeStyle;fillColor=#008a00;strokeColor=#005700;" parent="WIyWlLk6GJQsqaUBKTNV-1" source="HCuCCPsoGUSkc76l4n_5-25" target="HCuCCPsoGUSkc76l4n_5-17" edge="1">
          <mxGeometry width="50" height="50" relative="1" as="geometry">
            <mxPoint x="410" y="2700" as="sourcePoint" />
            <mxPoint x="160" y="2290" as="targetPoint" />
            <Array as="points">
              <mxPoint x="1340" y="2860" />
              <mxPoint x="1340" y="3580" />
              <mxPoint x="3670" y="3580" />
              <mxPoint x="3670" y="1980" />
              <mxPoint x="1045" y="1980" />
            </Array>
          </mxGeometry>
        </mxCell>
        <mxCell id="LxlmvngEwypOwOj6dEhx-50" value="" style="endArrow=classic;html=1;rounded=0;fillColor=#1ba1e2;strokeColor=#006EAF;edgeStyle=orthogonalEdgeStyle;" parent="WIyWlLk6GJQsqaUBKTNV-1" source="HCuCCPsoGUSkc76l4n_5-95" target="HCuCCPsoGUSkc76l4n_5-49" edge="1">
          <mxGeometry width="50" height="50" relative="1" as="geometry">
            <mxPoint x="100" y="1260" as="sourcePoint" />
            <mxPoint x="50" y="2841.40350877193" as="targetPoint" />
            <Array as="points">
              <mxPoint x="1045" y="1440" />
              <mxPoint x="40" y="1440" />
              <mxPoint x="40" y="3058" />
            </Array>
          </mxGeometry>
        </mxCell>
        <mxCell id="LxlmvngEwypOwOj6dEhx-51" value="" style="endArrow=classic;html=1;rounded=0;fillColor=#1ba1e2;strokeColor=#006EAF;edgeStyle=orthogonalEdgeStyle;" parent="WIyWlLk6GJQsqaUBKTNV-1" source="HCuCCPsoGUSkc76l4n_5-67" target="HCuCCPsoGUSkc76l4n_5-45" edge="1">
          <mxGeometry width="50" height="50" relative="1" as="geometry">
            <mxPoint x="110" y="1270" as="sourcePoint" />
            <mxPoint x="170" y="2850" as="targetPoint" />
            <Array as="points">
              <mxPoint x="1045" y="1470" />
              <mxPoint x="50" y="1470" />
              <mxPoint x="50" y="3090" />
            </Array>
          </mxGeometry>
        </mxCell>
        <mxCell id="LxlmvngEwypOwOj6dEhx-62" style="edgeStyle=orthogonalEdgeStyle;rounded=0;orthogonalLoop=1;jettySize=auto;html=1;fillColor=#008a00;strokeColor=#005700;" parent="WIyWlLk6GJQsqaUBKTNV-1" source="HCuCCPsoGUSkc76l4n_5-56" target="zkfFHV4jXpPFQw0GAbJ--24" edge="1">
          <mxGeometry relative="1" as="geometry">
            <Array as="points">
              <mxPoint x="3700" y="2640" />
              <mxPoint x="3700" y="320" />
            </Array>
            <mxPoint x="785" y="1390" as="sourcePoint" />
            <mxPoint x="1190" y="760" as="targetPoint" />
          </mxGeometry>
        </mxCell>
        <mxCell id="LxlmvngEwypOwOj6dEhx-69" style="edgeStyle=orthogonalEdgeStyle;rounded=0;orthogonalLoop=1;jettySize=auto;html=1;fillColor=#008a00;strokeColor=#005700;" parent="WIyWlLk6GJQsqaUBKTNV-1" source="HCuCCPsoGUSkc76l4n_5-38" target="HCuCCPsoGUSkc76l4n_5-30" edge="1">
          <mxGeometry relative="1" as="geometry">
            <Array as="points">
              <mxPoint x="2430" y="2679" />
              <mxPoint x="2430" y="2570" />
              <mxPoint x="3110" y="2570" />
              <mxPoint x="3110" y="1770" />
              <mxPoint x="1760" y="1770" />
              <mxPoint x="1760" y="1659" />
            </Array>
            <mxPoint x="1220" y="2430" as="sourcePoint" />
            <mxPoint x="580" y="310" as="targetPoint" />
          </mxGeometry>
        </mxCell>
        <mxCell id="LxlmvngEwypOwOj6dEhx-70" style="edgeStyle=orthogonalEdgeStyle;rounded=0;orthogonalLoop=1;jettySize=auto;html=1;fillColor=#008a00;strokeColor=#005700;" parent="WIyWlLk6GJQsqaUBKTNV-1" source="HCuCCPsoGUSkc76l4n_5-60" target="HCuCCPsoGUSkc76l4n_5-30" edge="1">
          <mxGeometry relative="1" as="geometry">
            <Array as="points">
              <mxPoint x="3720" y="2760" />
              <mxPoint x="3720" y="1710" />
              <mxPoint x="1730" y="1710" />
              <mxPoint x="1730" y="1650" />
            </Array>
            <mxPoint x="1220" y="2485" as="sourcePoint" />
            <mxPoint x="610" y="1380" as="targetPoint" />
          </mxGeometry>
        </mxCell>
        <mxCell id="RuJngxMLq8GJr4KWlcAt-26" value="" style="endArrow=classic;html=1;rounded=0;edgeStyle=orthogonalEdgeStyle;fillColor=#008a00;strokeColor=#005700;" parent="WIyWlLk6GJQsqaUBKTNV-1" source="RuJngxMLq8GJr4KWlcAt-17" target="HCuCCPsoGUSkc76l4n_5-21" edge="1">
          <mxGeometry width="50" height="50" relative="1" as="geometry">
            <mxPoint x="380" y="2700" as="sourcePoint" />
            <mxPoint x="250" y="1780" as="targetPoint" />
            <Array as="points">
              <mxPoint x="2910" y="3020" />
              <mxPoint x="2910" y="2900" />
              <mxPoint x="3750" y="2900" />
              <mxPoint x="3750" y="1940" />
            </Array>
          </mxGeometry>
        </mxCell>
        <mxCell id="RuJngxMLq8GJr4KWlcAt-27" value="" style="endArrow=classic;html=1;rounded=0;edgeStyle=orthogonalEdgeStyle;fillColor=#008a00;strokeColor=#005700;" parent="WIyWlLk6GJQsqaUBKTNV-1" source="RuJngxMLq8GJr4KWlcAt-17" target="HCuCCPsoGUSkc76l4n_5-18" edge="1">
          <mxGeometry width="50" height="50" relative="1" as="geometry">
            <mxPoint x="1760" y="2850" as="sourcePoint" />
            <mxPoint x="250" y="1700" as="targetPoint" />
            <Array as="points">
              <mxPoint x="2890" y="3040" />
              <mxPoint x="2890" y="2920" />
              <mxPoint x="3650" y="2920" />
              <mxPoint x="3650" y="1960" />
            </Array>
          </mxGeometry>
        </mxCell>
        <mxCell id="PAvOKs1-oqzffbysyNV3-0" value="PlayerInfo" style="swimlane;fontStyle=2;align=center;verticalAlign=top;childLayout=stackLayout;horizontal=1;startSize=26;horizontalStack=0;resizeParent=1;resizeLast=0;collapsible=1;marginBottom=0;rounded=0;shadow=0;strokeWidth=1;" parent="WIyWlLk6GJQsqaUBKTNV-1" vertex="1">
          <mxGeometry x="-380" y="330" width="190" height="490" as="geometry">
            <mxRectangle x="230" y="140" width="160" height="26" as="alternateBounds" />
          </mxGeometry>
        </mxCell>
        <mxCell id="PAvOKs1-oqzffbysyNV3-1" value="_player_number: int" style="text;align=left;verticalAlign=middle;spacingLeft=4;spacingRight=4;overflow=hidden;rotatable=0;points=[[0,0.5],[1,0.5]];portConstraint=eastwest;fillColor=#6a00ff;fontColor=#ffffff;strokeColor=#3700CC;" parent="PAvOKs1-oqzffbysyNV3-0" vertex="1">
          <mxGeometry y="26" width="190" height="34" as="geometry" />
        </mxCell>
        <mxCell id="PAvOKs1-oqzffbysyNV3-13" value="_color: Color" style="text;align=left;verticalAlign=middle;spacingLeft=4;spacingRight=4;overflow=hidden;rotatable=0;points=[[0,0.5],[1,0.5]];portConstraint=eastwest;fillColor=#6a00ff;fontColor=#ffffff;strokeColor=#3700CC;" parent="PAvOKs1-oqzffbysyNV3-0" vertex="1">
          <mxGeometry y="60" width="190" height="30" as="geometry" />
        </mxCell>
        <mxCell id="PAvOKs1-oqzffbysyNV3-14" value="_is_ready: bool" style="text;align=left;verticalAlign=middle;spacingLeft=4;spacingRight=4;overflow=hidden;rotatable=0;points=[[0,0.5],[1,0.5]];portConstraint=eastwest;fillColor=#6a00ff;fontColor=#ffffff;strokeColor=#3700CC;" parent="PAvOKs1-oqzffbysyNV3-0" vertex="1">
          <mxGeometry y="90" width="190" height="30" as="geometry" />
        </mxCell>
        <mxCell id="PAvOKs1-oqzffbysyNV3-15" value="_id: int" style="text;align=left;verticalAlign=middle;spacingLeft=4;spacingRight=4;overflow=hidden;rotatable=0;points=[[0,0.5],[1,0.5]];portConstraint=eastwest;fillColor=#6a00ff;fontColor=#ffffff;strokeColor=#3700CC;" parent="PAvOKs1-oqzffbysyNV3-0" vertex="1">
          <mxGeometry y="120" width="190" height="26" as="geometry" />
        </mxCell>
        <mxCell id="PAvOKs1-oqzffbysyNV3-2" value="" style="line;html=1;strokeWidth=1;align=left;verticalAlign=middle;spacingTop=-1;spacingLeft=3;spacingRight=3;rotatable=0;labelPosition=right;points=[];portConstraint=eastwest;" parent="PAvOKs1-oqzffbysyNV3-0" vertex="1">
          <mxGeometry y="146" width="190" height="8" as="geometry" />
        </mxCell>
        <mxCell id="PAvOKs1-oqzffbysyNV3-3" value="id()" style="text;align=left;verticalAlign=middle;spacingLeft=4;spacingRight=4;overflow=hidden;rotatable=0;points=[[0,0.5],[1,0.5]];portConstraint=eastwest;fillColor=#008a00;fontColor=#ffffff;strokeColor=#005700;" parent="PAvOKs1-oqzffbysyNV3-0" vertex="1">
          <mxGeometry y="154" width="190" height="26" as="geometry" />
        </mxCell>
        <mxCell id="PAvOKs1-oqzffbysyNV3-25" value="number()" style="text;align=left;verticalAlign=middle;spacingLeft=4;spacingRight=4;overflow=hidden;rotatable=0;points=[[0,0.5],[1,0.5]];portConstraint=eastwest;fillColor=#008a00;fontColor=#ffffff;strokeColor=#005700;" parent="PAvOKs1-oqzffbysyNV3-0" vertex="1">
          <mxGeometry y="180" width="190" height="20" as="geometry" />
        </mxCell>
        <mxCell id="PAvOKs1-oqzffbysyNV3-26" value="color()" style="text;align=left;verticalAlign=middle;spacingLeft=4;spacingRight=4;overflow=hidden;rotatable=0;points=[[0,0.5],[1,0.5]];portConstraint=eastwest;fillColor=#008a00;fontColor=#ffffff;strokeColor=#005700;" parent="PAvOKs1-oqzffbysyNV3-0" vertex="1">
          <mxGeometry y="200" width="190" height="20" as="geometry" />
        </mxCell>
        <mxCell id="PAvOKs1-oqzffbysyNV3-27" value="is_ready()" style="text;align=left;verticalAlign=middle;spacingLeft=4;spacingRight=4;overflow=hidden;rotatable=0;points=[[0,0.5],[1,0.5]];portConstraint=eastwest;fillColor=#008a00;fontColor=#ffffff;strokeColor=#005700;" parent="PAvOKs1-oqzffbysyNV3-0" vertex="1">
          <mxGeometry y="220" width="190" height="20" as="geometry" />
        </mxCell>
        <mxCell id="PAvOKs1-oqzffbysyNV3-28" value="serialize()" style="text;align=left;verticalAlign=middle;spacingLeft=4;spacingRight=4;overflow=hidden;rotatable=0;points=[[0,0.5],[1,0.5]];portConstraint=eastwest;fillColor=#008a00;fontColor=#ffffff;strokeColor=#005700;" parent="PAvOKs1-oqzffbysyNV3-0" vertex="1">
          <mxGeometry y="240" width="190" height="20" as="geometry" />
        </mxCell>
        <mxCell id="fX2MKnCIZ1Y0IGW4i7gZ-249" value="is_local_player()" style="text;align=left;verticalAlign=middle;spacingLeft=4;spacingRight=4;overflow=hidden;rotatable=0;points=[[0,0.5],[1,0.5]];portConstraint=eastwest;fillColor=#008a00;fontColor=#ffffff;strokeColor=#005700;" vertex="1" parent="PAvOKs1-oqzffbysyNV3-0">
          <mxGeometry y="260" width="190" height="30" as="geometry" />
        </mxCell>
        <mxCell id="PAvOKs1-oqzffbysyNV3-29" value="set_id()" style="text;align=left;verticalAlign=middle;spacingLeft=4;spacingRight=4;overflow=hidden;rotatable=0;points=[[0,0.5],[1,0.5]];portConstraint=eastwest;fillColor=#a20025;fontColor=#ffffff;strokeColor=#6F0000;" parent="PAvOKs1-oqzffbysyNV3-0" vertex="1">
          <mxGeometry y="290" width="190" height="30" as="geometry" />
        </mxCell>
        <mxCell id="PAvOKs1-oqzffbysyNV3-30" value="set_number()" style="text;align=left;verticalAlign=middle;spacingLeft=4;spacingRight=4;overflow=hidden;rotatable=0;points=[[0,0.5],[1,0.5]];portConstraint=eastwest;fillColor=#a20025;fontColor=#ffffff;strokeColor=#6F0000;" parent="PAvOKs1-oqzffbysyNV3-0" vertex="1">
          <mxGeometry y="320" width="190" height="30" as="geometry" />
        </mxCell>
        <mxCell id="PAvOKs1-oqzffbysyNV3-31" value="set_color()" style="text;align=left;verticalAlign=middle;spacingLeft=4;spacingRight=4;overflow=hidden;rotatable=0;points=[[0,0.5],[1,0.5]];portConstraint=eastwest;fillColor=#a20025;fontColor=#ffffff;strokeColor=#6F0000;" parent="PAvOKs1-oqzffbysyNV3-0" vertex="1">
          <mxGeometry y="350" width="190" height="30" as="geometry" />
        </mxCell>
        <mxCell id="PAvOKs1-oqzffbysyNV3-32" value="set_ready()" style="text;align=left;verticalAlign=middle;spacingLeft=4;spacingRight=4;overflow=hidden;rotatable=0;points=[[0,0.5],[1,0.5]];portConstraint=eastwest;fillColor=#a20025;fontColor=#ffffff;strokeColor=#6F0000;" parent="PAvOKs1-oqzffbysyNV3-0" vertex="1">
          <mxGeometry y="380" width="190" height="30" as="geometry" />
        </mxCell>
        <mxCell id="PAvOKs1-oqzffbysyNV3-33" value="deserialize()" style="text;align=left;verticalAlign=middle;spacingLeft=4;spacingRight=4;overflow=hidden;rotatable=0;points=[[0,0.5],[1,0.5]];portConstraint=eastwest;fillColor=#e3c800;fontColor=#000000;strokeColor=#B09500;" parent="PAvOKs1-oqzffbysyNV3-0" vertex="1">
          <mxGeometry y="410" width="190" height="50" as="geometry" />
        </mxCell>
        <mxCell id="PAvOKs1-oqzffbysyNV3-4" value="" style="line;html=1;strokeWidth=1;align=left;verticalAlign=middle;spacingTop=-1;spacingLeft=3;spacingRight=3;rotatable=0;labelPosition=right;points=[];portConstraint=eastwest;" parent="PAvOKs1-oqzffbysyNV3-0" vertex="1">
          <mxGeometry y="460" width="190" height="8" as="geometry" />
        </mxCell>
        <mxCell id="PAvOKs1-oqzffbysyNV3-5" value="_on_server_connect_success()&#xa;" style="text;align=left;verticalAlign=bottom;spacingLeft=4;spacingRight=4;overflow=hidden;rotatable=0;points=[[0,0.5],[1,0.5]];portConstraint=eastwest;fillColor=#e3c800;fontColor=#000000;strokeColor=#B09500;" parent="PAvOKs1-oqzffbysyNV3-0" vertex="1">
          <mxGeometry y="468" width="190" height="22" as="geometry" />
        </mxCell>
        <mxCell id="PAvOKs1-oqzffbysyNV3-34" value="" style="endArrow=classic;html=1;rounded=0;edgeStyle=orthogonalEdgeStyle;fillColor=#008a00;strokeColor=#005700;" parent="PAvOKs1-oqzffbysyNV3-0" source="PAvOKs1-oqzffbysyNV3-3" target="PAvOKs1-oqzffbysyNV3-15" edge="1">
          <mxGeometry width="50" height="50" relative="1" as="geometry">
            <mxPoint x="-30" y="410" as="sourcePoint" />
            <mxPoint x="20" y="360" as="targetPoint" />
            <Array as="points">
              <mxPoint x="-10" y="170" />
              <mxPoint x="-10" y="140" />
            </Array>
          </mxGeometry>
        </mxCell>
        <mxCell id="PAvOKs1-oqzffbysyNV3-35" value="" style="endArrow=classic;html=1;rounded=0;edgeStyle=orthogonalEdgeStyle;fillColor=#008a00;strokeColor=#005700;" parent="PAvOKs1-oqzffbysyNV3-0" source="PAvOKs1-oqzffbysyNV3-25" target="PAvOKs1-oqzffbysyNV3-1" edge="1">
          <mxGeometry width="50" height="50" relative="1" as="geometry">
            <mxPoint x="10" y="150" as="sourcePoint" />
            <mxPoint x="10" y="120" as="targetPoint" />
            <Array as="points">
              <mxPoint x="-20" y="190" />
              <mxPoint x="-20" y="50" />
            </Array>
          </mxGeometry>
        </mxCell>
        <mxCell id="PAvOKs1-oqzffbysyNV3-36" value="" style="endArrow=classic;html=1;rounded=0;edgeStyle=orthogonalEdgeStyle;fillColor=#008a00;strokeColor=#005700;" parent="PAvOKs1-oqzffbysyNV3-0" source="PAvOKs1-oqzffbysyNV3-26" target="PAvOKs1-oqzffbysyNV3-13" edge="1">
          <mxGeometry width="50" height="50" relative="1" as="geometry">
            <mxPoint x="10" y="170" as="sourcePoint" />
            <mxPoint x="10" y="50" as="targetPoint" />
            <Array as="points">
              <mxPoint x="-30" y="210" />
              <mxPoint x="-30" y="70" />
            </Array>
          </mxGeometry>
        </mxCell>
        <mxCell id="PAvOKs1-oqzffbysyNV3-37" value="" style="endArrow=classic;html=1;rounded=0;edgeStyle=orthogonalEdgeStyle;fillColor=#008a00;strokeColor=#005700;" parent="PAvOKs1-oqzffbysyNV3-0" source="PAvOKs1-oqzffbysyNV3-27" target="PAvOKs1-oqzffbysyNV3-14" edge="1">
          <mxGeometry width="50" height="50" relative="1" as="geometry">
            <mxPoint x="10" y="190" as="sourcePoint" />
            <mxPoint x="10" y="70" as="targetPoint" />
            <Array as="points">
              <mxPoint x="-40" y="230" />
              <mxPoint x="-40" y="100" />
            </Array>
          </mxGeometry>
        </mxCell>
        <mxCell id="PAvOKs1-oqzffbysyNV3-38" value="" style="endArrow=classic;html=1;rounded=0;edgeStyle=orthogonalEdgeStyle;fillColor=#a20025;strokeColor=#6F0000;" parent="PAvOKs1-oqzffbysyNV3-0" source="PAvOKs1-oqzffbysyNV3-29" target="PAvOKs1-oqzffbysyNV3-15" edge="1">
          <mxGeometry width="50" height="50" relative="1" as="geometry">
            <mxPoint x="-10" y="240" as="sourcePoint" />
            <mxPoint x="10" y="110" as="targetPoint" />
            <Array as="points">
              <mxPoint x="-50" y="300" />
              <mxPoint x="-50" y="130" />
            </Array>
          </mxGeometry>
        </mxCell>
        <mxCell id="PAvOKs1-oqzffbysyNV3-39" value="" style="endArrow=classic;html=1;rounded=0;edgeStyle=orthogonalEdgeStyle;fillColor=#a20025;strokeColor=#6F0000;" parent="PAvOKs1-oqzffbysyNV3-0" source="PAvOKs1-oqzffbysyNV3-30" target="PAvOKs1-oqzffbysyNV3-1" edge="1">
          <mxGeometry width="50" height="50" relative="1" as="geometry">
            <mxPoint x="10" y="248" as="sourcePoint" />
            <mxPoint x="10" y="117" as="targetPoint" />
            <Array as="points">
              <mxPoint x="-80" y="340" />
              <mxPoint x="-80" y="40" />
            </Array>
          </mxGeometry>
        </mxCell>
        <mxCell id="PAvOKs1-oqzffbysyNV3-40" value="" style="endArrow=classic;html=1;rounded=0;edgeStyle=orthogonalEdgeStyle;fillColor=#a20025;strokeColor=#6F0000;" parent="PAvOKs1-oqzffbysyNV3-0" source="PAvOKs1-oqzffbysyNV3-31" target="PAvOKs1-oqzffbysyNV3-13" edge="1">
          <mxGeometry width="50" height="50" relative="1" as="geometry">
            <mxPoint x="10" y="300" as="sourcePoint" />
            <mxPoint x="10" y="50" as="targetPoint" />
            <Array as="points">
              <mxPoint x="-60" y="360" />
              <mxPoint x="-60" y="80" />
            </Array>
          </mxGeometry>
        </mxCell>
        <mxCell id="PAvOKs1-oqzffbysyNV3-41" value="" style="endArrow=classic;html=1;rounded=0;edgeStyle=orthogonalEdgeStyle;fillColor=#a20025;strokeColor=#6F0000;" parent="PAvOKs1-oqzffbysyNV3-0" source="PAvOKs1-oqzffbysyNV3-32" target="PAvOKs1-oqzffbysyNV3-14" edge="1">
          <mxGeometry width="50" height="50" relative="1" as="geometry">
            <mxPoint x="10" y="320" as="sourcePoint" />
            <mxPoint x="10" y="90" as="targetPoint" />
            <Array as="points">
              <mxPoint x="-70" y="400" />
              <mxPoint x="-70" y="110" />
            </Array>
          </mxGeometry>
        </mxCell>
        <mxCell id="PAvOKs1-oqzffbysyNV3-53" value="" style="endArrow=classic;html=1;rounded=0;edgeStyle=orthogonalEdgeStyle;fillColor=#e3c800;strokeColor=#B09500;" parent="PAvOKs1-oqzffbysyNV3-0" source="PAvOKs1-oqzffbysyNV3-33" target="PAvOKs1-oqzffbysyNV3-30" edge="1">
          <mxGeometry width="50" height="50" relative="1" as="geometry">
            <mxPoint x="10" y="400" as="sourcePoint" />
            <mxPoint x="10" y="290" as="targetPoint" />
            <Array as="points">
              <mxPoint x="-40" y="410" />
              <mxPoint x="-40" y="330" />
            </Array>
          </mxGeometry>
        </mxCell>
        <mxCell id="PAvOKs1-oqzffbysyNV3-54" value="" style="endArrow=classic;html=1;rounded=0;edgeStyle=orthogonalEdgeStyle;fillColor=#e3c800;strokeColor=#B09500;" parent="PAvOKs1-oqzffbysyNV3-0" source="PAvOKs1-oqzffbysyNV3-33" target="PAvOKs1-oqzffbysyNV3-31" edge="1">
          <mxGeometry width="50" height="50" relative="1" as="geometry">
            <mxPoint x="10" y="420" as="sourcePoint" />
            <mxPoint x="10" y="320" as="targetPoint" />
            <Array as="points">
              <mxPoint x="-30" y="450" />
              <mxPoint x="-30" y="370" />
            </Array>
          </mxGeometry>
        </mxCell>
        <mxCell id="PAvOKs1-oqzffbysyNV3-55" value="" style="endArrow=classic;html=1;rounded=0;edgeStyle=orthogonalEdgeStyle;fillColor=#e3c800;strokeColor=#B09500;" parent="PAvOKs1-oqzffbysyNV3-0" source="PAvOKs1-oqzffbysyNV3-33" target="PAvOKs1-oqzffbysyNV3-32" edge="1">
          <mxGeometry width="50" height="50" relative="1" as="geometry">
            <mxPoint x="10" y="420" as="sourcePoint" />
            <mxPoint x="10" y="320" as="targetPoint" />
            <Array as="points">
              <mxPoint x="-20" y="430" />
              <mxPoint x="-20" y="390" />
            </Array>
          </mxGeometry>
        </mxCell>
        <mxCell id="PAvOKs1-oqzffbysyNV3-47" style="edgeStyle=orthogonalEdgeStyle;rounded=0;orthogonalLoop=1;jettySize=auto;html=1;exitX=0.5;exitY=0;exitDx=0;exitDy=0;fillColor=#d80073;strokeColor=#A50040;" parent="WIyWlLk6GJQsqaUBKTNV-1" source="PAvOKs1-oqzffbysyNV3-0" target="PAvOKs1-oqzffbysyNV3-6" edge="1">
          <mxGeometry relative="1" as="geometry">
            <mxPoint x="436" y="82" as="sourcePoint" />
            <mxPoint x="250" y="108" as="targetPoint" />
            <Array as="points">
              <mxPoint x="-285" y="200" />
            </Array>
          </mxGeometry>
        </mxCell>
        <mxCell id="fX2MKnCIZ1Y0IGW4i7gZ-64" value="&lt;font style=&quot;font-size: 36px;&quot;&gt;Game Module&lt;/font&gt;" style="swimlane;whiteSpace=wrap;html=1;startSize=55;" vertex="1" parent="WIyWlLk6GJQsqaUBKTNV-1">
          <mxGeometry x="920" y="30" width="500" height="360" as="geometry">
            <mxRectangle x="920" y="30" width="270" height="60" as="alternateBounds" />
          </mxGeometry>
        </mxCell>
        <mxCell id="zkfFHV4jXpPFQw0GAbJ--0" value="Game" style="swimlane;fontStyle=2;align=center;verticalAlign=top;childLayout=stackLayout;horizontal=1;startSize=26;horizontalStack=0;resizeParent=1;resizeLast=0;collapsible=1;marginBottom=0;rounded=0;shadow=0;strokeWidth=1;" parent="fX2MKnCIZ1Y0IGW4i7gZ-64" vertex="1">
          <mxGeometry x="20" y="107" width="190" height="183" as="geometry">
            <mxRectangle x="230" y="140" width="160" height="26" as="alternateBounds" />
          </mxGeometry>
        </mxCell>
        <mxCell id="zkfFHV4jXpPFQw0GAbJ--1" value="local_config: LocalConfig" style="text;align=left;verticalAlign=middle;spacingLeft=4;spacingRight=4;overflow=hidden;rotatable=0;points=[[0,0.5],[1,0.5]];portConstraint=eastwest;fillColor=#d80073;fontColor=#ffffff;strokeColor=#A50040;" parent="zkfFHV4jXpPFQw0GAbJ--0" vertex="1">
          <mxGeometry y="26" width="190" height="24" as="geometry" />
        </mxCell>
        <mxCell id="PAvOKs1-oqzffbysyNV3-6" value="_player_info: PlayerInfo" style="text;align=left;verticalAlign=middle;spacingLeft=4;spacingRight=4;overflow=hidden;rotatable=0;points=[[0,0.5],[1,0.5]];portConstraint=eastwest;fillColor=#d80073;fontColor=#ffffff;strokeColor=#A50040;" parent="zkfFHV4jXpPFQw0GAbJ--0" vertex="1">
          <mxGeometry y="50" width="190" height="40" as="geometry" />
        </mxCell>
        <mxCell id="zkfFHV4jXpPFQw0GAbJ--4" value="" style="line;html=1;strokeWidth=1;align=left;verticalAlign=middle;spacingTop=-1;spacingLeft=3;spacingRight=3;rotatable=0;labelPosition=right;points=[];portConstraint=eastwest;" parent="zkfFHV4jXpPFQw0GAbJ--0" vertex="1">
          <mxGeometry y="90" width="190" height="8" as="geometry" />
        </mxCell>
        <mxCell id="zkfFHV4jXpPFQw0GAbJ--5" value="_ready()" style="text;align=left;verticalAlign=middle;spacingLeft=4;spacingRight=4;overflow=hidden;rotatable=0;points=[[0,0.5],[1,0.5]];portConstraint=eastwest;" parent="zkfFHV4jXpPFQw0GAbJ--0" vertex="1">
          <mxGeometry y="98" width="190" height="20" as="geometry" />
        </mxCell>
        <mxCell id="PAvOKs1-oqzffbysyNV3-46" value="" style="line;html=1;strokeWidth=1;align=left;verticalAlign=middle;spacingTop=-1;spacingLeft=3;spacingRight=3;rotatable=0;labelPosition=right;points=[];portConstraint=eastwest;" parent="zkfFHV4jXpPFQw0GAbJ--0" vertex="1">
          <mxGeometry y="118" width="190" height="8" as="geometry" />
        </mxCell>
        <mxCell id="PAvOKs1-oqzffbysyNV3-43" value="player_info()" style="text;align=left;verticalAlign=middle;spacingLeft=4;spacingRight=4;overflow=hidden;rotatable=0;points=[[0,0.5],[1,0.5]];portConstraint=eastwest;fillColor=#008a00;fontColor=#ffffff;strokeColor=#005700;" parent="zkfFHV4jXpPFQw0GAbJ--0" vertex="1">
          <mxGeometry y="126" width="190" height="24" as="geometry" />
        </mxCell>
        <mxCell id="HCuCCPsoGUSkc76l4n_5-99" value="" style="line;html=1;strokeWidth=1;align=left;verticalAlign=middle;spacingTop=-1;spacingLeft=3;spacingRight=3;rotatable=0;labelPosition=right;points=[];portConstraint=eastwest;" parent="zkfFHV4jXpPFQw0GAbJ--0" vertex="1">
          <mxGeometry y="150" width="190" height="8" as="geometry" />
        </mxCell>
        <mxCell id="HCuCCPsoGUSkc76l4n_5-0" value="_on_server_connect_success()&#xa;" style="text;align=left;verticalAlign=bottom;spacingLeft=4;spacingRight=4;overflow=hidden;rotatable=0;points=[[0,0.5],[1,0.5]];portConstraint=eastwest;fillColor=#e3c800;fontColor=#000000;strokeColor=#B09500;" parent="zkfFHV4jXpPFQw0GAbJ--0" vertex="1">
          <mxGeometry y="158" width="190" height="24" as="geometry" />
        </mxCell>
        <mxCell id="PAvOKs1-oqzffbysyNV3-48" value="" style="endArrow=classic;html=1;rounded=0;edgeStyle=orthogonalEdgeStyle;fillColor=#008a00;strokeColor=#005700;" parent="zkfFHV4jXpPFQw0GAbJ--0" source="HCuCCPsoGUSkc76l4n_5-0" target="PAvOKs1-oqzffbysyNV3-43" edge="1">
          <mxGeometry width="50" height="50" relative="1" as="geometry">
            <mxPoint x="190" y="150" as="sourcePoint" />
            <mxPoint x="200" y="1530" as="targetPoint" />
            <Array as="points">
              <mxPoint x="200" y="173" />
              <mxPoint x="200" y="143" />
            </Array>
          </mxGeometry>
        </mxCell>
        <mxCell id="PAvOKs1-oqzffbysyNV3-58" value="" style="endArrow=classic;html=1;rounded=0;edgeStyle=orthogonalEdgeStyle;fillColor=#008a00;strokeColor=#005700;" parent="zkfFHV4jXpPFQw0GAbJ--0" source="PAvOKs1-oqzffbysyNV3-43" target="PAvOKs1-oqzffbysyNV3-6" edge="1">
          <mxGeometry width="50" height="50" relative="1" as="geometry">
            <mxPoint x="200" y="140" as="sourcePoint" />
            <mxPoint x="200" y="126" as="targetPoint" />
            <Array as="points">
              <mxPoint x="-10" y="130" />
              <mxPoint x="-10" y="70" />
            </Array>
          </mxGeometry>
        </mxCell>
        <mxCell id="zkfFHV4jXpPFQw0GAbJ--17" value="LocalConfig" style="swimlane;fontStyle=2;align=center;verticalAlign=top;childLayout=stackLayout;horizontal=1;startSize=26;horizontalStack=0;resizeParent=1;resizeLast=0;collapsible=1;marginBottom=0;rounded=0;shadow=0;strokeWidth=1;" parent="fX2MKnCIZ1Y0IGW4i7gZ-64" vertex="1">
          <mxGeometry x="280" y="107" width="190" height="224" as="geometry">
            <mxRectangle x="500" y="146" width="160" height="26" as="alternateBounds" />
          </mxGeometry>
        </mxCell>
        <mxCell id="fX2MKnCIZ1Y0IGW4i7gZ-98" value="config_path: String" style="text;align=left;verticalAlign=middle;spacingLeft=4;spacingRight=4;overflow=hidden;rotatable=0;points=[[0,0.5],[1,0.5]];portConstraint=eastwest;fillColor=#6a00ff;fontColor=#ffffff;strokeColor=#3700CC;" vertex="1" parent="zkfFHV4jXpPFQw0GAbJ--17">
          <mxGeometry y="26" width="190" height="24" as="geometry" />
        </mxCell>
        <mxCell id="RuJngxMLq8GJr4KWlcAt-1" value="_config_file: ConfigFile" style="text;align=left;verticalAlign=bottom;spacingLeft=4;spacingRight=4;overflow=hidden;rotatable=0;points=[[0,0.5],[1,0.5]];portConstraint=eastwest;fillColor=#d80073;fontColor=#ffffff;strokeColor=#A50040;" parent="zkfFHV4jXpPFQw0GAbJ--17" vertex="1">
          <mxGeometry y="50" width="190" height="34" as="geometry" />
        </mxCell>
        <mxCell id="RuJngxMLq8GJr4KWlcAt-0" value="" style="line;html=1;strokeWidth=1;align=left;verticalAlign=middle;spacingTop=-1;spacingLeft=3;spacingRight=3;rotatable=0;labelPosition=right;points=[];portConstraint=eastwest;" parent="zkfFHV4jXpPFQw0GAbJ--17" vertex="1">
          <mxGeometry y="84" width="190" height="8" as="geometry" />
        </mxCell>
        <mxCell id="zkfFHV4jXpPFQw0GAbJ--18" value="_init()" style="text;align=left;verticalAlign=middle;spacingLeft=4;spacingRight=4;overflow=hidden;rotatable=0;points=[[0,0.5],[1,0.5]];portConstraint=eastwest;fillColor=#a20025;fontColor=#ffffff;strokeColor=#6F0000;" parent="zkfFHV4jXpPFQw0GAbJ--17" vertex="1">
          <mxGeometry y="92" width="190" height="34" as="geometry" />
        </mxCell>
        <mxCell id="HCuCCPsoGUSkc76l4n_5-139" value="" style="line;html=1;strokeWidth=1;align=left;verticalAlign=middle;spacingTop=-1;spacingLeft=3;spacingRight=3;rotatable=0;labelPosition=right;points=[];portConstraint=eastwest;" parent="zkfFHV4jXpPFQw0GAbJ--17" vertex="1">
          <mxGeometry y="126" width="190" height="8" as="geometry" />
        </mxCell>
        <mxCell id="zkfFHV4jXpPFQw0GAbJ--19" value="_create_default_config_file()" style="text;align=left;verticalAlign=bottom;spacingLeft=4;spacingRight=4;overflow=hidden;rotatable=0;points=[[0,0.5],[1,0.5]];portConstraint=eastwest;rounded=0;shadow=0;html=0;fillColor=#a20025;fontColor=#ffffff;strokeColor=#6F0000;" parent="zkfFHV4jXpPFQw0GAbJ--17" vertex="1">
          <mxGeometry y="134" width="190" height="22" as="geometry" />
        </mxCell>
        <mxCell id="fX2MKnCIZ1Y0IGW4i7gZ-99" style="edgeStyle=orthogonalEdgeStyle;rounded=0;orthogonalLoop=1;jettySize=auto;html=1;fillColor=#a20025;strokeColor=#6F0000;" edge="1" parent="zkfFHV4jXpPFQw0GAbJ--17" source="zkfFHV4jXpPFQw0GAbJ--20" target="RuJngxMLq8GJr4KWlcAt-1">
          <mxGeometry relative="1" as="geometry">
            <Array as="points">
              <mxPoint x="-20" y="163" />
              <mxPoint x="-20" y="53" />
            </Array>
          </mxGeometry>
        </mxCell>
        <mxCell id="zkfFHV4jXpPFQw0GAbJ--20" value="_save_config()" style="text;align=left;verticalAlign=bottom;spacingLeft=4;spacingRight=4;overflow=hidden;rotatable=0;points=[[0,0.5],[1,0.5]];portConstraint=eastwest;rounded=0;shadow=0;html=0;fillColor=#a20025;fontColor=#ffffff;strokeColor=#6F0000;" parent="zkfFHV4jXpPFQw0GAbJ--17" vertex="1">
          <mxGeometry y="156" width="190" height="14" as="geometry" />
        </mxCell>
        <mxCell id="zkfFHV4jXpPFQw0GAbJ--23" value="" style="line;html=1;strokeWidth=1;align=left;verticalAlign=middle;spacingTop=-1;spacingLeft=3;spacingRight=3;rotatable=0;labelPosition=right;points=[];portConstraint=eastwest;" parent="zkfFHV4jXpPFQw0GAbJ--17" vertex="1">
          <mxGeometry y="170" width="190" height="8" as="geometry" />
        </mxCell>
        <mxCell id="zkfFHV4jXpPFQw0GAbJ--24" value="get_config_server_ip()" style="text;align=left;verticalAlign=bottom;spacingLeft=4;spacingRight=4;overflow=hidden;rotatable=0;points=[[0,0.5],[1,0.5]];portConstraint=eastwest;fillColor=#008a00;fontColor=#ffffff;strokeColor=#005700;" parent="zkfFHV4jXpPFQw0GAbJ--17" vertex="1">
          <mxGeometry y="178" width="190" height="16" as="geometry" />
        </mxCell>
        <mxCell id="zkfFHV4jXpPFQw0GAbJ--25" value="set_config_server_ip()" style="text;align=left;verticalAlign=bottom;spacingLeft=4;spacingRight=4;overflow=hidden;rotatable=0;points=[[0,0.5],[1,0.5]];portConstraint=eastwest;fillColor=#a20025;fontColor=#ffffff;strokeColor=#6F0000;" parent="zkfFHV4jXpPFQw0GAbJ--17" vertex="1">
          <mxGeometry y="194" width="190" height="30" as="geometry" />
        </mxCell>
        <mxCell id="RuJngxMLq8GJr4KWlcAt-2" style="edgeStyle=orthogonalEdgeStyle;rounded=0;orthogonalLoop=1;jettySize=auto;html=1;fillColor=#a20025;strokeColor=#6F0000;" parent="zkfFHV4jXpPFQw0GAbJ--17" source="zkfFHV4jXpPFQw0GAbJ--18" target="RuJngxMLq8GJr4KWlcAt-1" edge="1">
          <mxGeometry relative="1" as="geometry">
            <mxPoint x="11" y="20" as="sourcePoint" />
            <mxPoint x="-52" y="41" as="targetPoint" />
            <Array as="points">
              <mxPoint x="-5" y="113" />
              <mxPoint x="-5" y="63" />
            </Array>
          </mxGeometry>
        </mxCell>
        <mxCell id="RuJngxMLq8GJr4KWlcAt-3" style="edgeStyle=orthogonalEdgeStyle;rounded=0;orthogonalLoop=1;jettySize=auto;html=1;fillColor=#e3c800;strokeColor=#B09500;" parent="zkfFHV4jXpPFQw0GAbJ--17" source="zkfFHV4jXpPFQw0GAbJ--18" target="zkfFHV4jXpPFQw0GAbJ--19" edge="1">
          <mxGeometry relative="1" as="geometry">
            <mxPoint x="10" y="80" as="sourcePoint" />
            <mxPoint x="10" y="47" as="targetPoint" />
            <Array as="points">
              <mxPoint x="-5" y="123" />
              <mxPoint x="-5" y="143" />
            </Array>
          </mxGeometry>
        </mxCell>
        <mxCell id="RuJngxMLq8GJr4KWlcAt-5" style="edgeStyle=orthogonalEdgeStyle;rounded=0;orthogonalLoop=1;jettySize=auto;html=1;fillColor=#a20025;strokeColor=#6F0000;" parent="zkfFHV4jXpPFQw0GAbJ--17" source="zkfFHV4jXpPFQw0GAbJ--19" target="zkfFHV4jXpPFQw0GAbJ--25" edge="1">
          <mxGeometry relative="1" as="geometry">
            <mxPoint x="80" y="213" as="sourcePoint" />
            <mxPoint x="80" y="180" as="targetPoint" />
            <Array as="points">
              <mxPoint x="210" y="143" />
              <mxPoint x="210" y="213" />
            </Array>
          </mxGeometry>
        </mxCell>
        <mxCell id="RuJngxMLq8GJr4KWlcAt-7" style="edgeStyle=orthogonalEdgeStyle;rounded=0;orthogonalLoop=1;jettySize=auto;html=1;fillColor=#a20025;strokeColor=#6F0000;" parent="zkfFHV4jXpPFQw0GAbJ--17" source="zkfFHV4jXpPFQw0GAbJ--25" target="RuJngxMLq8GJr4KWlcAt-1" edge="1">
          <mxGeometry relative="1" as="geometry">
            <mxPoint x="10" y="80" as="sourcePoint" />
            <mxPoint x="10" y="47" as="targetPoint" />
            <Array as="points">
              <mxPoint x="-15" y="203" />
              <mxPoint x="-15" y="73" />
            </Array>
          </mxGeometry>
        </mxCell>
        <mxCell id="RuJngxMLq8GJr4KWlcAt-8" style="edgeStyle=orthogonalEdgeStyle;rounded=0;orthogonalLoop=1;jettySize=auto;html=1;fillColor=#e3c800;strokeColor=#B09500;" parent="zkfFHV4jXpPFQw0GAbJ--17" source="zkfFHV4jXpPFQw0GAbJ--25" target="zkfFHV4jXpPFQw0GAbJ--20" edge="1">
          <mxGeometry relative="1" as="geometry">
            <mxPoint x="10" y="100" as="sourcePoint" />
            <mxPoint x="10" y="130" as="targetPoint" />
            <Array as="points">
              <mxPoint x="200" y="203" />
              <mxPoint x="200" y="163" />
            </Array>
          </mxGeometry>
        </mxCell>
        <mxCell id="HCuCCPsoGUSkc76l4n_5-98" value="" style="endArrow=classic;html=1;rounded=0;edgeStyle=orthogonalEdgeStyle;fillColor=#e3c800;strokeColor=#B09500;" parent="fX2MKnCIZ1Y0IGW4i7gZ-64" source="HCuCCPsoGUSkc76l4n_5-0" target="zkfFHV4jXpPFQw0GAbJ--25" edge="1">
          <mxGeometry width="50" height="50" relative="1" as="geometry">
            <mxPoint x="-410" y="-265" as="sourcePoint" />
            <mxPoint x="-360" y="-315" as="targetPoint" />
            <Array as="points">
              <mxPoint x="315" y="270" />
              <mxPoint x="315" y="320" />
            </Array>
          </mxGeometry>
        </mxCell>
        <mxCell id="HCuCCPsoGUSkc76l4n_5-84" style="edgeStyle=orthogonalEdgeStyle;rounded=0;orthogonalLoop=1;jettySize=auto;html=1;fillColor=#d80073;strokeColor=#A50040;" parent="fX2MKnCIZ1Y0IGW4i7gZ-64" source="zkfFHV4jXpPFQw0GAbJ--17" target="zkfFHV4jXpPFQw0GAbJ--1" edge="1">
          <mxGeometry relative="1" as="geometry">
            <Array as="points">
              <mxPoint x="375" y="70" />
              <mxPoint x="240" y="70" />
              <mxPoint x="240" y="145" />
            </Array>
          </mxGeometry>
        </mxCell>
        <mxCell id="fX2MKnCIZ1Y0IGW4i7gZ-66" value="&lt;font style=&quot;font-size: 36px;&quot;&gt;Server Module&lt;/font&gt;" style="swimlane;whiteSpace=wrap;html=1;startSize=55;" vertex="1" parent="WIyWlLk6GJQsqaUBKTNV-1">
          <mxGeometry x="910" y="1290" width="1320" height="910" as="geometry">
            <mxRectangle x="910" y="1290" width="270" height="60" as="alternateBounds" />
          </mxGeometry>
        </mxCell>
        <mxCell id="zkfFHV4jXpPFQw0GAbJ--6" value="ConnectionManager" style="swimlane;fontStyle=2;align=center;verticalAlign=middle;childLayout=stackLayout;horizontal=1;startSize=26;horizontalStack=0;resizeParent=1;resizeLast=0;collapsible=1;marginBottom=0;rounded=0;shadow=0;strokeWidth=1;" parent="fX2MKnCIZ1Y0IGW4i7gZ-66" vertex="1">
          <mxGeometry x="610" y="110" width="160" height="440" as="geometry">
            <mxRectangle x="370" y="313" width="160" height="26" as="alternateBounds" />
          </mxGeometry>
        </mxCell>
        <mxCell id="RuJngxMLq8GJr4KWlcAt-10" value="_server_port: int" style="text;align=left;verticalAlign=middle;spacingLeft=4;spacingRight=4;overflow=hidden;rotatable=0;points=[[0,0.5],[1,0.5]];portConstraint=eastwest;fillColor=#6a00ff;fontColor=#ffffff;strokeColor=#3700CC;" parent="zkfFHV4jXpPFQw0GAbJ--6" vertex="1">
          <mxGeometry y="26" width="160" height="34" as="geometry" />
        </mxCell>
        <mxCell id="RuJngxMLq8GJr4KWlcAt-12" value="_ip: String" style="text;align=left;verticalAlign=middle;spacingLeft=4;spacingRight=4;overflow=hidden;rotatable=0;points=[[0,0.5],[1,0.5]];portConstraint=eastwest;fillColor=#6a00ff;fontColor=#ffffff;strokeColor=#3700CC;" parent="zkfFHV4jXpPFQw0GAbJ--6" vertex="1">
          <mxGeometry y="60" width="160" height="30" as="geometry" />
        </mxCell>
        <mxCell id="RuJngxMLq8GJr4KWlcAt-9" value="" style="line;html=1;strokeWidth=1;align=left;verticalAlign=middle;spacingTop=-1;spacingLeft=3;spacingRight=3;rotatable=0;labelPosition=right;points=[];portConstraint=eastwest;" parent="zkfFHV4jXpPFQw0GAbJ--6" vertex="1">
          <mxGeometry y="90" width="160" height="8" as="geometry" />
        </mxCell>
        <mxCell id="zkfFHV4jXpPFQw0GAbJ--7" value="_ready()" style="text;align=left;verticalAlign=middle;spacingLeft=4;spacingRight=4;overflow=hidden;rotatable=0;points=[[0,0.5],[1,0.5]];portConstraint=eastwest;fillColor=#a20025;fontColor=#ffffff;strokeColor=#6F0000;" parent="zkfFHV4jXpPFQw0GAbJ--6" vertex="1">
          <mxGeometry y="98" width="160" height="24" as="geometry" />
        </mxCell>
        <mxCell id="zkfFHV4jXpPFQw0GAbJ--9" value="" style="line;html=1;strokeWidth=1;align=left;verticalAlign=middle;spacingTop=-1;spacingLeft=3;spacingRight=3;rotatable=0;labelPosition=right;points=[];portConstraint=eastwest;" parent="zkfFHV4jXpPFQw0GAbJ--6" vertex="1">
          <mxGeometry y="122" width="160" height="8" as="geometry" />
        </mxCell>
        <mxCell id="fX2MKnCIZ1Y0IGW4i7gZ-229" style="edgeStyle=orthogonalEdgeStyle;rounded=0;orthogonalLoop=1;jettySize=auto;html=1;fillColor=#a20025;strokeColor=#6F0000;" edge="1" parent="zkfFHV4jXpPFQw0GAbJ--6" source="zkfFHV4jXpPFQw0GAbJ--10" target="RuJngxMLq8GJr4KWlcAt-10">
          <mxGeometry relative="1" as="geometry">
            <mxPoint x="160" y="40" as="targetPoint" />
            <Array as="points">
              <mxPoint x="180" y="150" />
              <mxPoint x="180" y="50" />
            </Array>
          </mxGeometry>
        </mxCell>
        <mxCell id="zkfFHV4jXpPFQw0GAbJ--10" value="connect_to_server()" style="text;align=left;verticalAlign=middle;spacingLeft=4;spacingRight=4;overflow=hidden;rotatable=0;points=[[0,0.5],[1,0.5]];portConstraint=eastwest;fontStyle=0;fillColor=#a20025;fontColor=#ffffff;strokeColor=#6F0000;" parent="zkfFHV4jXpPFQw0GAbJ--6" vertex="1">
          <mxGeometry y="130" width="160" height="40" as="geometry" />
        </mxCell>
        <mxCell id="fX2MKnCIZ1Y0IGW4i7gZ-227" style="edgeStyle=orthogonalEdgeStyle;rounded=0;orthogonalLoop=1;jettySize=auto;html=1;fillColor=#a20025;strokeColor=#6F0000;" edge="1" parent="zkfFHV4jXpPFQw0GAbJ--6" source="zkfFHV4jXpPFQw0GAbJ--8" target="RuJngxMLq8GJr4KWlcAt-12">
          <mxGeometry relative="1" as="geometry">
            <Array as="points">
              <mxPoint x="190" y="180" />
              <mxPoint x="190" y="70" />
            </Array>
          </mxGeometry>
        </mxCell>
        <mxCell id="zkfFHV4jXpPFQw0GAbJ--8" value="create_server()" style="text;align=left;verticalAlign=middle;spacingLeft=4;spacingRight=4;overflow=hidden;rotatable=0;points=[[0,0.5],[1,0.5]];portConstraint=eastwest;rounded=0;shadow=0;html=0;fillColor=#a20025;fontColor=#ffffff;strokeColor=#6F0000;" parent="zkfFHV4jXpPFQw0GAbJ--6" vertex="1">
          <mxGeometry y="170" width="160" height="34" as="geometry" />
        </mxCell>
        <mxCell id="zkfFHV4jXpPFQw0GAbJ--11" value="disconnect_from_server()" style="text;align=left;verticalAlign=middle;spacingLeft=4;spacingRight=4;overflow=hidden;rotatable=0;points=[[0,0.5],[1,0.5]];portConstraint=eastwest;fillColor=#e3c800;fontColor=#000000;strokeColor=#B09500;" parent="zkfFHV4jXpPFQw0GAbJ--6" vertex="1">
          <mxGeometry y="204" width="160" height="20" as="geometry" />
        </mxCell>
        <mxCell id="fX2MKnCIZ1Y0IGW4i7gZ-234" style="edgeStyle=orthogonalEdgeStyle;rounded=0;orthogonalLoop=1;jettySize=auto;html=1;fillColor=#008a00;strokeColor=#005700;" edge="1" parent="zkfFHV4jXpPFQw0GAbJ--6" source="HCuCCPsoGUSkc76l4n_5-8" target="RuJngxMLq8GJr4KWlcAt-12">
          <mxGeometry relative="1" as="geometry">
            <Array as="points">
              <mxPoint x="-20" y="234" />
              <mxPoint x="-20" y="75" />
            </Array>
          </mxGeometry>
        </mxCell>
        <mxCell id="HCuCCPsoGUSkc76l4n_5-8" value="get_server_ip()" style="text;align=left;verticalAlign=middle;spacingLeft=4;spacingRight=4;overflow=hidden;rotatable=0;points=[[0,0.5],[1,0.5]];portConstraint=eastwest;fillColor=#008a00;fontColor=#ffffff;strokeColor=#005700;" parent="zkfFHV4jXpPFQw0GAbJ--6" vertex="1">
          <mxGeometry y="224" width="160" height="20" as="geometry" />
        </mxCell>
        <mxCell id="HCuCCPsoGUSkc76l4n_5-30" value="is_peer_connected()" style="text;align=left;verticalAlign=middle;spacingLeft=4;spacingRight=4;overflow=hidden;rotatable=0;points=[[0,0.5],[1,0.5]];portConstraint=eastwest;fillColor=#008a00;fontColor=#ffffff;strokeColor=#005700;" parent="zkfFHV4jXpPFQw0GAbJ--6" vertex="1">
          <mxGeometry y="244" width="160" height="30" as="geometry" />
        </mxCell>
        <mxCell id="HCuCCPsoGUSkc76l4n_5-126" value="" style="line;html=1;strokeWidth=1;align=left;verticalAlign=middle;spacingTop=-1;spacingLeft=3;spacingRight=3;rotatable=0;labelPosition=right;points=[];portConstraint=eastwest;" parent="zkfFHV4jXpPFQw0GAbJ--6" vertex="1">
          <mxGeometry y="274" width="160" height="8" as="geometry" />
        </mxCell>
        <mxCell id="HCuCCPsoGUSkc76l4n_5-24" value="_on_peer_connected()" style="text;align=left;verticalAlign=middle;spacingLeft=4;spacingRight=4;overflow=hidden;rotatable=0;points=[[0,0.5],[1,0.5]];portConstraint=eastwest;" parent="zkfFHV4jXpPFQw0GAbJ--6" vertex="1">
          <mxGeometry y="282" width="160" height="32" as="geometry" />
        </mxCell>
        <mxCell id="LxlmvngEwypOwOj6dEhx-40" value="_on_peer_disconnected()" style="text;align=left;verticalAlign=middle;spacingLeft=4;spacingRight=4;overflow=hidden;rotatable=0;points=[[0,0.5],[1,0.5]];portConstraint=eastwest;fillColor=#e3c800;fontColor=#000000;strokeColor=#B09500;" parent="zkfFHV4jXpPFQw0GAbJ--6" vertex="1">
          <mxGeometry y="314" width="160" height="32" as="geometry" />
        </mxCell>
        <mxCell id="HCuCCPsoGUSkc76l4n_5-15" value="_on_connected_to_server()" style="text;align=left;verticalAlign=bottom;spacingLeft=4;spacingRight=4;overflow=hidden;rotatable=0;points=[[0,0.5],[1,0.5]];portConstraint=eastwest;fillColor=#e3c800;fontColor=#000000;strokeColor=#B09500;" parent="zkfFHV4jXpPFQw0GAbJ--6" vertex="1">
          <mxGeometry y="346" width="160" height="34" as="geometry" />
        </mxCell>
        <mxCell id="HCuCCPsoGUSkc76l4n_5-29" value="_on_connection_failed()" style="text;align=left;verticalAlign=bottom;spacingLeft=4;spacingRight=4;overflow=hidden;rotatable=0;points=[[0,0.5],[1,0.5]];portConstraint=eastwest;fillColor=#a20025;fontColor=#ffffff;strokeColor=#6F0000;" parent="zkfFHV4jXpPFQw0GAbJ--6" vertex="1">
          <mxGeometry y="380" width="160" height="20" as="geometry" />
        </mxCell>
        <mxCell id="HCuCCPsoGUSkc76l4n_5-125" value="_on_server_disconnected()" style="text;align=left;verticalAlign=middle;spacingLeft=4;spacingRight=4;overflow=hidden;rotatable=0;points=[[0,0.5],[1,0.5]];portConstraint=eastwest;fillColor=#e3c800;fontColor=#000000;strokeColor=#B09500;" parent="zkfFHV4jXpPFQw0GAbJ--6" vertex="1">
          <mxGeometry y="400" width="160" height="40" as="geometry" />
        </mxCell>
        <mxCell id="fX2MKnCIZ1Y0IGW4i7gZ-228" style="edgeStyle=orthogonalEdgeStyle;rounded=0;orthogonalLoop=1;jettySize=auto;html=1;fillColor=#a20025;strokeColor=#6F0000;" edge="1" parent="zkfFHV4jXpPFQw0GAbJ--6" source="zkfFHV4jXpPFQw0GAbJ--8" target="RuJngxMLq8GJr4KWlcAt-10">
          <mxGeometry relative="1" as="geometry">
            <mxPoint x="170" y="170" as="sourcePoint" />
            <mxPoint x="170" y="72" as="targetPoint" />
            <Array as="points">
              <mxPoint x="200" y="190" />
              <mxPoint x="200" y="38" />
            </Array>
          </mxGeometry>
        </mxCell>
        <mxCell id="fX2MKnCIZ1Y0IGW4i7gZ-230" style="edgeStyle=orthogonalEdgeStyle;rounded=0;orthogonalLoop=1;jettySize=auto;html=1;fillColor=#a20025;strokeColor=#6F0000;" edge="1" parent="zkfFHV4jXpPFQw0GAbJ--6" source="zkfFHV4jXpPFQw0GAbJ--10" target="RuJngxMLq8GJr4KWlcAt-12">
          <mxGeometry relative="1" as="geometry">
            <mxPoint x="170" y="156" as="sourcePoint" />
            <mxPoint x="170" y="60" as="targetPoint" />
            <Array as="points">
              <mxPoint x="170" y="140" />
              <mxPoint x="170" y="80" />
            </Array>
          </mxGeometry>
        </mxCell>
        <mxCell id="zkfFHV4jXpPFQw0GAbJ--13" value="Server" style="swimlane;fontStyle=2;align=center;verticalAlign=middle;childLayout=stackLayout;horizontal=1;startSize=26;horizontalStack=0;resizeParent=1;resizeLast=0;collapsible=1;marginBottom=0;rounded=0;shadow=0;strokeWidth=1;" parent="fX2MKnCIZ1Y0IGW4i7gZ-66" vertex="1">
          <mxGeometry x="95" y="110" width="150" height="694" as="geometry">
            <mxRectangle x="90" y="1210" width="170" height="26" as="alternateBounds" />
          </mxGeometry>
        </mxCell>
        <mxCell id="HCuCCPsoGUSkc76l4n_5-95" value="signal connection_success" style="text;align=left;verticalAlign=middle;spacingLeft=4;spacingRight=4;overflow=hidden;rotatable=0;points=[[0,0.5],[1,0.5]];portConstraint=eastwest;strokeColor=#006EAF;fillColor=#1ba1e2;fontColor=#ffffff;" parent="zkfFHV4jXpPFQw0GAbJ--13" vertex="1">
          <mxGeometry y="26" width="150" height="34" as="geometry" />
        </mxCell>
        <mxCell id="HCuCCPsoGUSkc76l4n_5-67" value="signal_connection_failed" style="text;align=left;verticalAlign=bottom;spacingLeft=4;spacingRight=4;overflow=hidden;rotatable=0;points=[[0,0.5],[1,0.5]];portConstraint=eastwest;fillColor=#1ba1e2;fontColor=#ffffff;strokeColor=#006EAF;" parent="zkfFHV4jXpPFQw0GAbJ--13" vertex="1">
          <mxGeometry y="60" width="150" height="20" as="geometry" />
        </mxCell>
        <mxCell id="HCuCCPsoGUSkc76l4n_5-69" value="signal server_disconnected" style="text;align=left;verticalAlign=bottom;spacingLeft=4;spacingRight=4;overflow=hidden;rotatable=0;points=[[0,0.5],[1,0.5]];portConstraint=eastwest;fillColor=#1ba1e2;fontColor=#ffffff;strokeColor=#006EAF;" parent="zkfFHV4jXpPFQw0GAbJ--13" vertex="1">
          <mxGeometry y="80" width="150" height="30" as="geometry" />
        </mxCell>
        <mxCell id="HCuCCPsoGUSkc76l4n_5-68" value="signal player_connected" style="text;align=left;verticalAlign=bottom;spacingLeft=4;spacingRight=4;overflow=hidden;rotatable=0;points=[[0,0.5],[1,0.5]];portConstraint=eastwest;fillColor=#1ba1e2;fontColor=#ffffff;strokeColor=#006EAF;" parent="zkfFHV4jXpPFQw0GAbJ--13" vertex="1">
          <mxGeometry y="110" width="150" height="20" as="geometry" />
        </mxCell>
        <mxCell id="HCuCCPsoGUSkc76l4n_5-94" value="signal player_disconnected" style="text;align=left;verticalAlign=bottom;spacingLeft=4;spacingRight=4;overflow=hidden;rotatable=0;points=[[0,0.5],[1,0.5]];portConstraint=eastwest;fillColor=#1ba1e2;fontColor=#ffffff;strokeColor=#006EAF;" parent="zkfFHV4jXpPFQw0GAbJ--13" vertex="1">
          <mxGeometry y="130" width="150" height="20" as="geometry" />
        </mxCell>
        <mxCell id="HCuCCPsoGUSkc76l4n_5-3" value="" style="line;html=1;strokeWidth=1;align=left;verticalAlign=middle;spacingTop=-1;spacingLeft=3;spacingRight=3;rotatable=0;labelPosition=right;points=[];portConstraint=eastwest;" parent="zkfFHV4jXpPFQw0GAbJ--13" vertex="1">
          <mxGeometry y="150" width="150" height="8" as="geometry" />
        </mxCell>
        <mxCell id="HCuCCPsoGUSkc76l4n_5-4" value="connection_manager: ConnectionManager" style="text;align=left;verticalAlign=bottom;spacingLeft=4;spacingRight=4;overflow=hidden;rotatable=0;points=[[0,0.5],[1,0.5]];portConstraint=eastwest;fillColor=#d80073;fontColor=#ffffff;strokeColor=#A50040;" parent="zkfFHV4jXpPFQw0GAbJ--13" vertex="1">
          <mxGeometry y="158" width="150" height="32" as="geometry" />
        </mxCell>
        <mxCell id="fX2MKnCIZ1Y0IGW4i7gZ-130" value="game: GSGGame" style="text;align=left;verticalAlign=bottom;spacingLeft=4;spacingRight=4;overflow=hidden;rotatable=0;points=[[0,0.5],[1,0.5]];portConstraint=eastwest;fillColor=#d80073;fontColor=#ffffff;strokeColor=#A50040;" vertex="1" parent="zkfFHV4jXpPFQw0GAbJ--13">
          <mxGeometry y="190" width="150" height="26" as="geometry" />
        </mxCell>
        <mxCell id="WXUMpDyl50409upAGo6d-0" value="_server_status: ServerStatus" style="text;align=left;verticalAlign=bottom;spacingLeft=4;spacingRight=4;overflow=hidden;rotatable=0;points=[[0,0.5],[1,0.5]];portConstraint=eastwest;fillColor=#6a00ff;fontColor=#ffffff;strokeColor=#3700CC;" parent="zkfFHV4jXpPFQw0GAbJ--13" vertex="1">
          <mxGeometry y="216" width="150" height="26" as="geometry" />
        </mxCell>
        <mxCell id="fX2MKnCIZ1Y0IGW4i7gZ-226" value="players: {}" style="text;align=left;verticalAlign=bottom;spacingLeft=4;spacingRight=4;overflow=hidden;rotatable=0;points=[[0,0.5],[1,0.5]];portConstraint=eastwest;fillColor=#6a00ff;fontColor=#ffffff;strokeColor=#3700CC;" vertex="1" parent="zkfFHV4jXpPFQw0GAbJ--13">
          <mxGeometry y="242" width="150" height="26" as="geometry" />
        </mxCell>
        <mxCell id="zkfFHV4jXpPFQw0GAbJ--15" value="" style="line;html=1;strokeWidth=1;align=left;verticalAlign=middle;spacingTop=-1;spacingLeft=3;spacingRight=3;rotatable=0;labelPosition=right;points=[];portConstraint=eastwest;" parent="zkfFHV4jXpPFQw0GAbJ--13" vertex="1">
          <mxGeometry y="268" width="150" height="8" as="geometry" />
        </mxCell>
        <mxCell id="HCuCCPsoGUSkc76l4n_5-5" value="_init()" style="text;align=left;verticalAlign=bottom;spacingLeft=4;spacingRight=4;overflow=hidden;rotatable=0;points=[[0,0.5],[1,0.5]];portConstraint=eastwest;fillColor=#a20025;fontColor=#ffffff;strokeColor=#6F0000;" parent="zkfFHV4jXpPFQw0GAbJ--13" vertex="1">
          <mxGeometry y="276" width="150" height="16" as="geometry" />
        </mxCell>
        <mxCell id="HCuCCPsoGUSkc76l4n_5-6" value="_ready()" style="text;align=left;verticalAlign=bottom;spacingLeft=4;spacingRight=4;overflow=hidden;rotatable=0;points=[[0,0.5],[1,0.5]];portConstraint=eastwest;" parent="zkfFHV4jXpPFQw0GAbJ--13" vertex="1">
          <mxGeometry y="292" width="150" height="18" as="geometry" />
        </mxCell>
        <mxCell id="fX2MKnCIZ1Y0IGW4i7gZ-132" style="edgeStyle=orthogonalEdgeStyle;rounded=0;orthogonalLoop=1;jettySize=auto;html=1;fillColor=#008a00;strokeColor=#005700;" edge="1" parent="zkfFHV4jXpPFQw0GAbJ--13" source="fX2MKnCIZ1Y0IGW4i7gZ-131" target="HCuCCPsoGUSkc76l4n_5-17">
          <mxGeometry relative="1" as="geometry">
            <mxPoint x="205" y="277" as="targetPoint" />
            <Array as="points">
              <mxPoint x="-15" y="320" />
              <mxPoint x="-15" y="560" />
            </Array>
          </mxGeometry>
        </mxCell>
        <mxCell id="fX2MKnCIZ1Y0IGW4i7gZ-133" style="edgeStyle=orthogonalEdgeStyle;rounded=0;orthogonalLoop=1;jettySize=auto;html=1;fillColor=#e3c800;strokeColor=#B09500;" edge="1" parent="zkfFHV4jXpPFQw0GAbJ--13" source="fX2MKnCIZ1Y0IGW4i7gZ-131" target="HCuCCPsoGUSkc76l4n_5-12">
          <mxGeometry relative="1" as="geometry">
            <mxPoint x="-15" y="330" as="targetPoint" />
            <Array as="points">
              <mxPoint x="-35" y="330" />
              <mxPoint x="-35" y="360" />
            </Array>
          </mxGeometry>
        </mxCell>
        <mxCell id="fX2MKnCIZ1Y0IGW4i7gZ-136" style="edgeStyle=orthogonalEdgeStyle;rounded=0;orthogonalLoop=1;jettySize=auto;html=1;fillColor=#e3c800;strokeColor=#B09500;" edge="1" parent="zkfFHV4jXpPFQw0GAbJ--13" source="fX2MKnCIZ1Y0IGW4i7gZ-131" target="HCuCCPsoGUSkc76l4n_5-7">
          <mxGeometry relative="1" as="geometry">
            <mxPoint x="155" y="377" as="targetPoint" />
            <Array as="points">
              <mxPoint x="185" y="320" />
              <mxPoint x="185" y="460" />
            </Array>
          </mxGeometry>
        </mxCell>
        <mxCell id="fX2MKnCIZ1Y0IGW4i7gZ-131" value="_process()" style="text;align=left;verticalAlign=middle;spacingLeft=4;spacingRight=4;overflow=hidden;rotatable=0;points=[[0,0.5],[1,0.5]];portConstraint=eastwest;" vertex="1" parent="zkfFHV4jXpPFQw0GAbJ--13">
          <mxGeometry y="310" width="150" height="32" as="geometry" />
        </mxCell>
        <mxCell id="HCuCCPsoGUSkc76l4n_5-93" value="" style="line;html=1;strokeWidth=1;align=left;verticalAlign=middle;spacingTop=-1;spacingLeft=3;spacingRight=3;rotatable=0;labelPosition=right;points=[];portConstraint=eastwest;" parent="zkfFHV4jXpPFQw0GAbJ--13" vertex="1">
          <mxGeometry y="342" width="150" height="8" as="geometry" />
        </mxCell>
        <mxCell id="fX2MKnCIZ1Y0IGW4i7gZ-137" style="edgeStyle=orthogonalEdgeStyle;rounded=0;orthogonalLoop=1;jettySize=auto;html=1;fillColor=#008a00;strokeColor=#005700;" edge="1" parent="zkfFHV4jXpPFQw0GAbJ--13" source="HCuCCPsoGUSkc76l4n_5-12" target="HCuCCPsoGUSkc76l4n_5-17">
          <mxGeometry relative="1" as="geometry">
            <Array as="points">
              <mxPoint x="-25" y="350" />
              <mxPoint x="-25" y="570" />
            </Array>
          </mxGeometry>
        </mxCell>
        <mxCell id="HCuCCPsoGUSkc76l4n_5-12" value="send_player_info()" style="text;align=left;verticalAlign=middle;spacingLeft=4;spacingRight=4;overflow=hidden;rotatable=0;points=[[0,0.5],[1,0.5]];portConstraint=eastwest;fillColor=#e3c800;fontColor=#000000;strokeColor=#B09500;" parent="zkfFHV4jXpPFQw0GAbJ--13" vertex="1">
          <mxGeometry y="350" width="150" height="92" as="geometry" />
        </mxCell>
        <mxCell id="HCuCCPsoGUSkc76l4n_5-7" value="update_player_info()" style="text;align=left;verticalAlign=bottom;spacingLeft=4;spacingRight=4;overflow=hidden;rotatable=0;points=[[0,0.5],[1,0.5]];portConstraint=eastwest;fillColor=#e3c800;fontColor=#000000;strokeColor=#B09500;" parent="zkfFHV4jXpPFQw0GAbJ--13" vertex="1">
          <mxGeometry y="442" width="150" height="40" as="geometry" />
        </mxCell>
        <mxCell id="HCuCCPsoGUSkc76l4n_5-9" value="register_player()" style="text;align=left;verticalAlign=bottom;spacingLeft=4;spacingRight=4;overflow=hidden;rotatable=0;points=[[0,0.5],[1,0.5]];portConstraint=eastwest;fillColor=#a20025;fontColor=#ffffff;strokeColor=#6F0000;" parent="zkfFHV4jXpPFQw0GAbJ--13" vertex="1">
          <mxGeometry y="482" width="150" height="20" as="geometry" />
        </mxCell>
        <mxCell id="HCuCCPsoGUSkc76l4n_5-22" value="is_host()" style="text;align=left;verticalAlign=bottom;spacingLeft=4;spacingRight=4;overflow=hidden;rotatable=0;points=[[0,0.5],[1,0.5]];portConstraint=eastwest;fillColor=#008a00;fontColor=#ffffff;strokeColor=#005700;" parent="zkfFHV4jXpPFQw0GAbJ--13" vertex="1">
          <mxGeometry y="502" width="150" height="20" as="geometry" />
        </mxCell>
        <mxCell id="fX2MKnCIZ1Y0IGW4i7gZ-225" style="edgeStyle=orthogonalEdgeStyle;rounded=0;orthogonalLoop=1;jettySize=auto;html=1;fillColor=#008a00;strokeColor=#005700;" edge="1" parent="zkfFHV4jXpPFQw0GAbJ--13" source="HCuCCPsoGUSkc76l4n_5-21" target="fX2MKnCIZ1Y0IGW4i7gZ-226">
          <mxGeometry relative="1" as="geometry">
            <mxPoint x="-94.99999999999977" y="220" as="targetPoint" />
            <Array as="points">
              <mxPoint x="205" y="530" />
              <mxPoint x="205" y="250" />
            </Array>
          </mxGeometry>
        </mxCell>
        <mxCell id="HCuCCPsoGUSkc76l4n_5-21" value="get_players()" style="text;align=left;verticalAlign=bottom;spacingLeft=4;spacingRight=4;overflow=hidden;rotatable=0;points=[[0,0.5],[1,0.5]];portConstraint=eastwest;fillColor=#008a00;fontColor=#ffffff;strokeColor=#005700;" parent="zkfFHV4jXpPFQw0GAbJ--13" vertex="1">
          <mxGeometry y="522" width="150" height="28" as="geometry" />
        </mxCell>
        <mxCell id="HCuCCPsoGUSkc76l4n_5-18" value="get_player()" style="text;align=left;verticalAlign=bottom;spacingLeft=4;spacingRight=4;overflow=hidden;rotatable=0;points=[[0,0.5],[1,0.5]];portConstraint=eastwest;fillColor=#008a00;fontColor=#ffffff;strokeColor=#005700;" parent="zkfFHV4jXpPFQw0GAbJ--13" vertex="1">
          <mxGeometry y="550" width="150" height="20" as="geometry" />
        </mxCell>
        <mxCell id="HCuCCPsoGUSkc76l4n_5-17" value="is_peer_connected()" style="text;align=left;verticalAlign=bottom;spacingLeft=4;spacingRight=4;overflow=hidden;rotatable=0;points=[[0,0.5],[1,0.5]];portConstraint=eastwest;fillColor=#008a00;fontColor=#ffffff;strokeColor=#005700;" parent="zkfFHV4jXpPFQw0GAbJ--13" vertex="1">
          <mxGeometry y="570" width="150" height="42" as="geometry" />
        </mxCell>
        <mxCell id="HCuCCPsoGUSkc76l4n_5-113" value="" style="line;html=1;strokeWidth=1;align=left;verticalAlign=middle;spacingTop=-1;spacingLeft=3;spacingRight=3;rotatable=0;labelPosition=right;points=[];portConstraint=eastwest;" parent="zkfFHV4jXpPFQw0GAbJ--13" vertex="1">
          <mxGeometry y="612" width="150" height="8" as="geometry" />
        </mxCell>
        <mxCell id="HCuCCPsoGUSkc76l4n_5-13" value="_on_request_connect()" style="text;align=left;verticalAlign=middle;spacingLeft=4;spacingRight=4;overflow=hidden;rotatable=0;points=[[0,0.5],[1,0.5]];portConstraint=eastwest;fillColor=#e3c800;fontColor=#000000;strokeColor=#B09500;" parent="zkfFHV4jXpPFQw0GAbJ--13" vertex="1">
          <mxGeometry y="620" width="150" height="22" as="geometry" />
        </mxCell>
        <mxCell id="HCuCCPsoGUSkc76l4n_5-14" value="_on_request_create_new_server()" style="text;align=left;verticalAlign=middle;spacingLeft=4;spacingRight=4;overflow=hidden;rotatable=0;points=[[0,0.5],[1,0.5]];portConstraint=eastwest;fillColor=#e3c800;fontColor=#000000;strokeColor=#B09500;" parent="zkfFHV4jXpPFQw0GAbJ--13" vertex="1">
          <mxGeometry y="642" width="150" height="20" as="geometry" />
        </mxCell>
        <mxCell id="HCuCCPsoGUSkc76l4n_5-16" value="_on_request_disconnect()" style="text;align=left;verticalAlign=middle;spacingLeft=4;spacingRight=4;overflow=hidden;rotatable=0;points=[[0,0.5],[1,0.5]];portConstraint=eastwest;fillColor=#e3c800;fontColor=#000000;strokeColor=#B09500;" parent="zkfFHV4jXpPFQw0GAbJ--13" vertex="1">
          <mxGeometry y="662" width="150" height="32" as="geometry" />
        </mxCell>
        <mxCell id="HCuCCPsoGUSkc76l4n_5-114" value="" style="endArrow=classic;html=1;rounded=0;edgeStyle=orthogonalEdgeStyle;fillColor=#e3c800;strokeColor=#B09500;" parent="zkfFHV4jXpPFQw0GAbJ--13" source="HCuCCPsoGUSkc76l4n_5-12" target="HCuCCPsoGUSkc76l4n_5-9" edge="1">
          <mxGeometry width="50" height="50" relative="1" as="geometry">
            <mxPoint x="-10" y="550" as="sourcePoint" />
            <mxPoint x="40" y="500" as="targetPoint" />
            <Array as="points">
              <mxPoint x="195" y="370" />
              <mxPoint x="195" y="490" />
            </Array>
          </mxGeometry>
        </mxCell>
        <mxCell id="HCuCCPsoGUSkc76l4n_5-116" value="" style="endArrow=classic;html=1;rounded=0;edgeStyle=orthogonalEdgeStyle;fillColor=#e3c800;strokeColor=#B09500;" parent="zkfFHV4jXpPFQw0GAbJ--13" source="HCuCCPsoGUSkc76l4n_5-12" target="HCuCCPsoGUSkc76l4n_5-7" edge="1">
          <mxGeometry width="50" height="50" relative="1" as="geometry">
            <mxPoint x="10" y="259" as="sourcePoint" />
            <mxPoint x="15" y="298" as="targetPoint" />
            <Array as="points">
              <mxPoint x="175" y="349" />
              <mxPoint x="175" y="450" />
            </Array>
          </mxGeometry>
        </mxCell>
        <mxCell id="HCuCCPsoGUSkc76l4n_5-137" style="edgeStyle=orthogonalEdgeStyle;rounded=0;orthogonalLoop=1;jettySize=auto;html=1;fillColor=#a20025;strokeColor=#6F0000;" parent="zkfFHV4jXpPFQw0GAbJ--13" source="HCuCCPsoGUSkc76l4n_5-5" target="HCuCCPsoGUSkc76l4n_5-4" edge="1">
          <mxGeometry relative="1" as="geometry">
            <mxPoint x="155" y="240" as="sourcePoint" />
            <mxPoint x="160" y="183" as="targetPoint" />
            <Array as="points">
              <mxPoint x="165" y="284" />
              <mxPoint x="165" y="170" />
            </Array>
          </mxGeometry>
        </mxCell>
        <mxCell id="HCuCCPsoGUSkc76l4n_5-86" style="edgeStyle=orthogonalEdgeStyle;rounded=0;orthogonalLoop=1;jettySize=auto;html=1;fillColor=#d80073;strokeColor=#A50040;" parent="fX2MKnCIZ1Y0IGW4i7gZ-66" source="zkfFHV4jXpPFQw0GAbJ--6" target="HCuCCPsoGUSkc76l4n_5-4" edge="1">
          <mxGeometry relative="1" as="geometry">
            <Array as="points">
              <mxPoint x="500" y="120" />
              <mxPoint x="500" y="290" />
            </Array>
          </mxGeometry>
        </mxCell>
        <mxCell id="HCuCCPsoGUSkc76l4n_5-121" value="" style="endArrow=classic;html=1;rounded=0;edgeStyle=orthogonalEdgeStyle;fillColor=#e3c800;strokeColor=#B09500;" parent="fX2MKnCIZ1Y0IGW4i7gZ-66" source="HCuCCPsoGUSkc76l4n_5-14" target="zkfFHV4jXpPFQw0GAbJ--8" edge="1">
          <mxGeometry width="50" height="50" relative="1" as="geometry">
            <mxPoint x="205" y="-429" as="sourcePoint" />
            <mxPoint x="245.6060606060605" y="-580" as="targetPoint" />
            <Array as="points">
              <mxPoint x="345" y="760" />
              <mxPoint x="345" y="289" />
            </Array>
          </mxGeometry>
        </mxCell>
        <mxCell id="HCuCCPsoGUSkc76l4n_5-124" value="" style="endArrow=classic;html=1;rounded=0;edgeStyle=orthogonalEdgeStyle;fillColor=#e3c800;strokeColor=#B09500;" parent="fX2MKnCIZ1Y0IGW4i7gZ-66" source="HCuCCPsoGUSkc76l4n_5-13" target="zkfFHV4jXpPFQw0GAbJ--10" edge="1">
          <mxGeometry width="50" height="50" relative="1" as="geometry">
            <mxPoint x="205" y="-341" as="sourcePoint" />
            <mxPoint x="349" y="-680" as="targetPoint" />
            <Array as="points">
              <mxPoint x="335" y="740" />
              <mxPoint x="335" y="270" />
            </Array>
          </mxGeometry>
        </mxCell>
        <mxCell id="HCuCCPsoGUSkc76l4n_5-127" value="" style="endArrow=classic;html=1;rounded=0;edgeStyle=orthogonalEdgeStyle;fillColor=#e3c800;strokeColor=#B09500;" parent="fX2MKnCIZ1Y0IGW4i7gZ-66" source="HCuCCPsoGUSkc76l4n_5-16" target="zkfFHV4jXpPFQw0GAbJ--11" edge="1">
          <mxGeometry width="50" height="50" relative="1" as="geometry">
            <mxPoint x="205" y="-341" as="sourcePoint" />
            <mxPoint x="349" y="-709" as="targetPoint" />
            <Array as="points">
              <mxPoint x="500" y="790" />
              <mxPoint x="500" y="324" />
            </Array>
          </mxGeometry>
        </mxCell>
        <mxCell id="HCuCCPsoGUSkc76l4n_5-132" value="" style="endArrow=classic;html=1;rounded=0;edgeStyle=orthogonalEdgeStyle;" parent="fX2MKnCIZ1Y0IGW4i7gZ-66" source="LxlmvngEwypOwOj6dEhx-40" target="HCuCCPsoGUSkc76l4n_5-94" edge="1">
          <mxGeometry width="50" height="50" relative="1" as="geometry">
            <mxPoint x="349" y="-611" as="sourcePoint" />
            <mxPoint x="205" y="-651" as="targetPoint" />
            <Array as="points">
              <mxPoint x="390" y="440" />
              <mxPoint x="390" y="250" />
            </Array>
          </mxGeometry>
        </mxCell>
        <mxCell id="HCuCCPsoGUSkc76l4n_5-135" value="" style="endArrow=classic;html=1;rounded=0;edgeStyle=orthogonalEdgeStyle;" parent="fX2MKnCIZ1Y0IGW4i7gZ-66" source="HCuCCPsoGUSkc76l4n_5-29" target="HCuCCPsoGUSkc76l4n_5-68" edge="1">
          <mxGeometry width="50" height="50" relative="1" as="geometry">
            <mxPoint x="615" y="300" as="sourcePoint" />
            <mxPoint x="205" y="-652" as="targetPoint" />
            <Array as="points">
              <mxPoint x="600" y="490" />
              <mxPoint x="600" y="230" />
            </Array>
          </mxGeometry>
        </mxCell>
        <mxCell id="HCuCCPsoGUSkc76l4n_5-136" style="edgeStyle=orthogonalEdgeStyle;rounded=0;orthogonalLoop=1;jettySize=auto;html=1;" parent="fX2MKnCIZ1Y0IGW4i7gZ-66" source="zkfFHV4jXpPFQw0GAbJ--10" target="HCuCCPsoGUSkc76l4n_5-95" edge="1">
          <mxGeometry relative="1" as="geometry">
            <mxPoint x="348" y="-767" as="sourcePoint" />
            <mxPoint x="245" y="-820" as="targetPoint" />
            <Array as="points">
              <mxPoint x="420" y="260" />
              <mxPoint x="420" y="150" />
            </Array>
          </mxGeometry>
        </mxCell>
        <mxCell id="LxlmvngEwypOwOj6dEhx-42" value="" style="endArrow=classic;html=1;rounded=0;edgeStyle=orthogonalEdgeStyle;" parent="fX2MKnCIZ1Y0IGW4i7gZ-66" source="HCuCCPsoGUSkc76l4n_5-125" target="HCuCCPsoGUSkc76l4n_5-69" edge="1">
          <mxGeometry width="50" height="50" relative="1" as="geometry">
            <mxPoint x="455" y="412" as="sourcePoint" />
            <mxPoint x="255" y="300" as="targetPoint" />
            <Array as="points">
              <mxPoint x="570" y="520" />
              <mxPoint x="570" y="200" />
            </Array>
          </mxGeometry>
        </mxCell>
        <mxCell id="fX2MKnCIZ1Y0IGW4i7gZ-100" value="PlayerList" style="swimlane;fontStyle=2;align=center;verticalAlign=top;childLayout=stackLayout;horizontal=1;startSize=26;horizontalStack=0;resizeParent=1;resizeLast=0;collapsible=1;marginBottom=0;rounded=0;shadow=0;strokeWidth=1;" vertex="1" parent="fX2MKnCIZ1Y0IGW4i7gZ-66">
          <mxGeometry x="968" y="110" width="190" height="288" as="geometry">
            <mxRectangle x="230" y="140" width="160" height="26" as="alternateBounds" />
          </mxGeometry>
        </mxCell>
        <mxCell id="zkfFHV4jXpPFQw0GAbJ--14" value="players: Dictionary" style="text;align=left;verticalAlign=middle;spacingLeft=4;spacingRight=4;overflow=hidden;rotatable=0;points=[[0,0.5],[1,0.5]];portConstraint=eastwest;fontStyle=0;fillColor=#6a00ff;fontColor=#ffffff;strokeColor=#3700CC;" parent="fX2MKnCIZ1Y0IGW4i7gZ-100" vertex="1">
          <mxGeometry y="26" width="190" height="64" as="geometry" />
        </mxCell>
        <mxCell id="fX2MKnCIZ1Y0IGW4i7gZ-105" value="" style="line;html=1;strokeWidth=1;align=left;verticalAlign=middle;spacingTop=-1;spacingLeft=3;spacingRight=3;rotatable=0;labelPosition=right;points=[];portConstraint=eastwest;" vertex="1" parent="fX2MKnCIZ1Y0IGW4i7gZ-100">
          <mxGeometry y="90" width="190" height="8" as="geometry" />
        </mxCell>
        <mxCell id="fX2MKnCIZ1Y0IGW4i7gZ-243" style="edgeStyle=orthogonalEdgeStyle;rounded=0;orthogonalLoop=1;jettySize=auto;html=1;fillColor=#008a00;strokeColor=#005700;" edge="1" parent="fX2MKnCIZ1Y0IGW4i7gZ-100" source="fX2MKnCIZ1Y0IGW4i7gZ-106" target="zkfFHV4jXpPFQw0GAbJ--14">
          <mxGeometry relative="1" as="geometry">
            <Array as="points">
              <mxPoint x="-8" y="111" />
              <mxPoint x="-8" y="58" />
            </Array>
          </mxGeometry>
        </mxCell>
        <mxCell id="fX2MKnCIZ1Y0IGW4i7gZ-106" value="all()" style="text;align=left;verticalAlign=middle;spacingLeft=4;spacingRight=4;overflow=hidden;rotatable=0;points=[[0,0.5],[1,0.5]];portConstraint=eastwest;fillColor=#008a00;fontColor=#ffffff;strokeColor=#005700;" vertex="1" parent="fX2MKnCIZ1Y0IGW4i7gZ-100">
          <mxGeometry y="98" width="190" height="26" as="geometry" />
        </mxCell>
        <mxCell id="fX2MKnCIZ1Y0IGW4i7gZ-107" value="size()" style="text;align=left;verticalAlign=middle;spacingLeft=4;spacingRight=4;overflow=hidden;rotatable=0;points=[[0,0.5],[1,0.5]];portConstraint=eastwest;fillColor=#008a00;fontColor=#ffffff;strokeColor=#005700;" vertex="1" parent="fX2MKnCIZ1Y0IGW4i7gZ-100">
          <mxGeometry y="124" width="190" height="20" as="geometry" />
        </mxCell>
        <mxCell id="fX2MKnCIZ1Y0IGW4i7gZ-245" style="edgeStyle=orthogonalEdgeStyle;rounded=0;orthogonalLoop=1;jettySize=auto;html=1;fillColor=#008a00;strokeColor=#005700;" edge="1" parent="fX2MKnCIZ1Y0IGW4i7gZ-100" source="fX2MKnCIZ1Y0IGW4i7gZ-108" target="zkfFHV4jXpPFQw0GAbJ--14">
          <mxGeometry relative="1" as="geometry">
            <Array as="points">
              <mxPoint x="-28" y="160" />
              <mxPoint x="-28" y="58" />
            </Array>
          </mxGeometry>
        </mxCell>
        <mxCell id="fX2MKnCIZ1Y0IGW4i7gZ-108" value="by_id()" style="text;align=left;verticalAlign=middle;spacingLeft=4;spacingRight=4;overflow=hidden;rotatable=0;points=[[0,0.5],[1,0.5]];portConstraint=eastwest;fillColor=#008a00;fontColor=#ffffff;strokeColor=#005700;" vertex="1" parent="fX2MKnCIZ1Y0IGW4i7gZ-100">
          <mxGeometry y="144" width="190" height="26" as="geometry" />
        </mxCell>
        <mxCell id="fX2MKnCIZ1Y0IGW4i7gZ-109" value="get_ready_status()" style="text;align=left;verticalAlign=middle;spacingLeft=4;spacingRight=4;overflow=hidden;rotatable=0;points=[[0,0.5],[1,0.5]];portConstraint=eastwest;fillColor=#008a00;fontColor=#ffffff;strokeColor=#005700;" vertex="1" parent="fX2MKnCIZ1Y0IGW4i7gZ-100">
          <mxGeometry y="170" width="190" height="20" as="geometry" />
        </mxCell>
        <mxCell id="fX2MKnCIZ1Y0IGW4i7gZ-236" style="edgeStyle=orthogonalEdgeStyle;rounded=0;orthogonalLoop=1;jettySize=auto;html=1;fillColor=#a20025;strokeColor=#6F0000;" edge="1" parent="fX2MKnCIZ1Y0IGW4i7gZ-100" source="fX2MKnCIZ1Y0IGW4i7gZ-111" target="zkfFHV4jXpPFQw0GAbJ--14">
          <mxGeometry relative="1" as="geometry">
            <Array as="points">
              <mxPoint x="210" y="200" />
              <mxPoint x="210" y="50" />
            </Array>
          </mxGeometry>
        </mxCell>
        <mxCell id="fX2MKnCIZ1Y0IGW4i7gZ-111" value="update()" style="text;align=left;verticalAlign=middle;spacingLeft=4;spacingRight=4;overflow=hidden;rotatable=0;points=[[0,0.5],[1,0.5]];portConstraint=eastwest;fillColor=#a20025;fontColor=#ffffff;strokeColor=#6F0000;" vertex="1" parent="fX2MKnCIZ1Y0IGW4i7gZ-100">
          <mxGeometry y="190" width="190" height="30" as="geometry" />
        </mxCell>
        <mxCell id="fX2MKnCIZ1Y0IGW4i7gZ-237" style="edgeStyle=orthogonalEdgeStyle;rounded=0;orthogonalLoop=1;jettySize=auto;html=1;fillColor=#a20025;strokeColor=#6F0000;" edge="1" parent="fX2MKnCIZ1Y0IGW4i7gZ-100" source="fX2MKnCIZ1Y0IGW4i7gZ-112" target="zkfFHV4jXpPFQw0GAbJ--14">
          <mxGeometry relative="1" as="geometry">
            <Array as="points">
              <mxPoint x="222" y="230" />
              <mxPoint x="222" y="40" />
            </Array>
          </mxGeometry>
        </mxCell>
        <mxCell id="fX2MKnCIZ1Y0IGW4i7gZ-112" value="erase()" style="text;align=left;verticalAlign=middle;spacingLeft=4;spacingRight=4;overflow=hidden;rotatable=0;points=[[0,0.5],[1,0.5]];portConstraint=eastwest;fillColor=#a20025;fontColor=#ffffff;strokeColor=#6F0000;" vertex="1" parent="fX2MKnCIZ1Y0IGW4i7gZ-100">
          <mxGeometry y="220" width="190" height="30" as="geometry" />
        </mxCell>
        <mxCell id="fX2MKnCIZ1Y0IGW4i7gZ-240" value="clear()" style="text;align=left;verticalAlign=middle;spacingLeft=4;spacingRight=4;overflow=hidden;rotatable=0;points=[[0,0.5],[1,0.5]];portConstraint=eastwest;fillColor=#a20025;fontColor=#ffffff;strokeColor=#6F0000;" vertex="1" parent="fX2MKnCIZ1Y0IGW4i7gZ-100">
          <mxGeometry y="250" width="190" height="30" as="geometry" />
        </mxCell>
        <mxCell id="fX2MKnCIZ1Y0IGW4i7gZ-116" value="" style="line;html=1;strokeWidth=1;align=left;verticalAlign=middle;spacingTop=-1;spacingLeft=3;spacingRight=3;rotatable=0;labelPosition=right;points=[];portConstraint=eastwest;" vertex="1" parent="fX2MKnCIZ1Y0IGW4i7gZ-100">
          <mxGeometry y="280" width="190" height="8" as="geometry" />
        </mxCell>
        <mxCell id="fX2MKnCIZ1Y0IGW4i7gZ-244" style="edgeStyle=orthogonalEdgeStyle;rounded=0;orthogonalLoop=1;jettySize=auto;html=1;fillColor=#008a00;strokeColor=#005700;" edge="1" parent="fX2MKnCIZ1Y0IGW4i7gZ-100" source="fX2MKnCIZ1Y0IGW4i7gZ-107" target="zkfFHV4jXpPFQw0GAbJ--14">
          <mxGeometry relative="1" as="geometry">
            <mxPoint x="10" y="121" as="sourcePoint" />
            <mxPoint x="10" y="68" as="targetPoint" />
            <Array as="points">
              <mxPoint x="-18" y="134" />
              <mxPoint x="-18" y="68" />
            </Array>
          </mxGeometry>
        </mxCell>
        <mxCell id="fX2MKnCIZ1Y0IGW4i7gZ-246" style="edgeStyle=orthogonalEdgeStyle;rounded=0;orthogonalLoop=1;jettySize=auto;html=1;fillColor=#a20025;strokeColor=#6F0000;" edge="1" parent="fX2MKnCIZ1Y0IGW4i7gZ-100" source="fX2MKnCIZ1Y0IGW4i7gZ-240" target="zkfFHV4jXpPFQw0GAbJ--14">
          <mxGeometry relative="1" as="geometry">
            <mxPoint x="200" y="240" as="sourcePoint" />
            <mxPoint x="200" y="50" as="targetPoint" />
            <Array as="points">
              <mxPoint x="232" y="260" />
              <mxPoint x="232" y="60" />
            </Array>
          </mxGeometry>
        </mxCell>
        <mxCell id="fX2MKnCIZ1Y0IGW4i7gZ-138" style="edgeStyle=orthogonalEdgeStyle;rounded=0;orthogonalLoop=1;jettySize=auto;html=1;fillColor=#008a00;strokeColor=#005700;" edge="1" parent="fX2MKnCIZ1Y0IGW4i7gZ-66" source="HCuCCPsoGUSkc76l4n_5-12" target="fX2MKnCIZ1Y0IGW4i7gZ-108">
          <mxGeometry relative="1" as="geometry">
            <mxPoint x="320" y="449" as="targetPoint" />
            <Array as="points">
              <mxPoint x="470" y="500" />
              <mxPoint x="470" y="560" />
              <mxPoint x="930" y="560" />
              <mxPoint x="930" y="264" />
            </Array>
          </mxGeometry>
        </mxCell>
        <mxCell id="HCuCCPsoGUSkc76l4n_5-117" value="" style="endArrow=classic;html=1;rounded=0;edgeStyle=orthogonalEdgeStyle;fillColor=#e3c800;strokeColor=#B09500;" parent="fX2MKnCIZ1Y0IGW4i7gZ-66" source="HCuCCPsoGUSkc76l4n_5-7" target="fX2MKnCIZ1Y0IGW4i7gZ-111" edge="1">
          <mxGeometry width="50" height="50" relative="1" as="geometry">
            <mxPoint x="105" y="369" as="sourcePoint" />
            <mxPoint x="245" y="510" as="targetPoint" />
            <Array as="points">
              <mxPoint x="890" y="580" />
              <mxPoint x="890" y="310" />
            </Array>
          </mxGeometry>
        </mxCell>
        <mxCell id="fX2MKnCIZ1Y0IGW4i7gZ-231" style="edgeStyle=orthogonalEdgeStyle;rounded=0;orthogonalLoop=1;jettySize=auto;html=1;" edge="1" parent="fX2MKnCIZ1Y0IGW4i7gZ-66" source="zkfFHV4jXpPFQw0GAbJ--10" target="HCuCCPsoGUSkc76l4n_5-67">
          <mxGeometry relative="1" as="geometry">
            <mxPoint x="620" y="270" as="sourcePoint" />
            <mxPoint x="255" y="160" as="targetPoint" />
            <Array as="points">
              <mxPoint x="430" y="250" />
              <mxPoint x="430" y="180" />
            </Array>
          </mxGeometry>
        </mxCell>
        <mxCell id="fX2MKnCIZ1Y0IGW4i7gZ-232" style="edgeStyle=orthogonalEdgeStyle;rounded=0;orthogonalLoop=1;jettySize=auto;html=1;" edge="1" parent="fX2MKnCIZ1Y0IGW4i7gZ-66" source="zkfFHV4jXpPFQw0GAbJ--8" target="HCuCCPsoGUSkc76l4n_5-95">
          <mxGeometry relative="1" as="geometry">
            <mxPoint x="620" y="270" as="sourcePoint" />
            <mxPoint x="255" y="160" as="targetPoint" />
            <Array as="points">
              <mxPoint x="450" y="300" />
              <mxPoint x="450" y="160" />
            </Array>
          </mxGeometry>
        </mxCell>
        <mxCell id="fX2MKnCIZ1Y0IGW4i7gZ-233" style="edgeStyle=orthogonalEdgeStyle;rounded=0;orthogonalLoop=1;jettySize=auto;html=1;fillColor=#a20025;strokeColor=#6F0000;" edge="1" parent="fX2MKnCIZ1Y0IGW4i7gZ-66" source="zkfFHV4jXpPFQw0GAbJ--11" target="zkfFHV4jXpPFQw0GAbJ--14">
          <mxGeometry relative="1" as="geometry">
            <Array as="points">
              <mxPoint x="869" y="324" />
              <mxPoint x="869" y="160" />
            </Array>
          </mxGeometry>
        </mxCell>
        <mxCell id="fX2MKnCIZ1Y0IGW4i7gZ-235" style="edgeStyle=orthogonalEdgeStyle;rounded=0;orthogonalLoop=1;jettySize=auto;html=1;fillColor=#e3c800;strokeColor=#B09500;" edge="1" parent="fX2MKnCIZ1Y0IGW4i7gZ-66" source="LxlmvngEwypOwOj6dEhx-40" target="fX2MKnCIZ1Y0IGW4i7gZ-112">
          <mxGeometry relative="1" as="geometry" />
        </mxCell>
        <mxCell id="fX2MKnCIZ1Y0IGW4i7gZ-238" style="edgeStyle=orthogonalEdgeStyle;rounded=0;orthogonalLoop=1;jettySize=auto;html=1;fillColor=#e3c800;strokeColor=#B09500;" edge="1" parent="fX2MKnCIZ1Y0IGW4i7gZ-66" source="HCuCCPsoGUSkc76l4n_5-15" target="HCuCCPsoGUSkc76l4n_5-12">
          <mxGeometry relative="1" as="geometry">
            <Array as="points">
              <mxPoint x="400" y="470" />
              <mxPoint x="400" y="490" />
            </Array>
          </mxGeometry>
        </mxCell>
        <mxCell id="fX2MKnCIZ1Y0IGW4i7gZ-241" style="edgeStyle=orthogonalEdgeStyle;rounded=0;orthogonalLoop=1;jettySize=auto;html=1;fillColor=#e3c800;strokeColor=#B09500;" edge="1" parent="fX2MKnCIZ1Y0IGW4i7gZ-66" source="HCuCCPsoGUSkc76l4n_5-125" target="fX2MKnCIZ1Y0IGW4i7gZ-240">
          <mxGeometry relative="1" as="geometry">
            <Array as="points">
              <mxPoint x="880" y="524" />
              <mxPoint x="880" y="370" />
            </Array>
          </mxGeometry>
        </mxCell>
        <mxCell id="fX2MKnCIZ1Y0IGW4i7gZ-242" style="edgeStyle=orthogonalEdgeStyle;rounded=0;orthogonalLoop=1;jettySize=auto;html=1;" edge="1" parent="fX2MKnCIZ1Y0IGW4i7gZ-66" source="HCuCCPsoGUSkc76l4n_5-125" target="HCuCCPsoGUSkc76l4n_5-69">
          <mxGeometry relative="1" as="geometry">
            <Array as="points">
              <mxPoint x="428" y="530" />
              <mxPoint x="428" y="210" />
            </Array>
          </mxGeometry>
        </mxCell>
        <mxCell id="fX2MKnCIZ1Y0IGW4i7gZ-135" style="edgeStyle=orthogonalEdgeStyle;rounded=0;orthogonalLoop=1;jettySize=auto;html=1;fillColor=#008a00;strokeColor=#005700;" edge="1" parent="WIyWlLk6GJQsqaUBKTNV-1" source="fX2MKnCIZ1Y0IGW4i7gZ-131" target="PAvOKs1-oqzffbysyNV3-6">
          <mxGeometry relative="1" as="geometry">
            <Array as="points">
              <mxPoint x="985" y="1710" />
              <mxPoint x="985" y="961" />
              <mxPoint x="1150" y="961" />
              <mxPoint x="1150" y="210" />
            </Array>
          </mxGeometry>
        </mxCell>
        <mxCell id="fX2MKnCIZ1Y0IGW4i7gZ-139" value="&lt;font style=&quot;font-size: 36px;&quot;&gt;UI Module&lt;/font&gt;" style="swimlane;whiteSpace=wrap;html=1;startSize=55;" vertex="1" parent="WIyWlLk6GJQsqaUBKTNV-1">
          <mxGeometry x="890" y="2348" width="1980" height="1159" as="geometry">
            <mxRectangle x="890" y="2348" width="270" height="60" as="alternateBounds" />
          </mxGeometry>
        </mxCell>
        <mxCell id="HCuCCPsoGUSkc76l4n_5-31" value="UI" style="swimlane;fontStyle=2;align=center;verticalAlign=top;childLayout=stackLayout;horizontal=1;startSize=26;horizontalStack=0;resizeParent=1;resizeLast=0;collapsible=1;marginBottom=0;rounded=0;shadow=0;strokeWidth=1;labelBorderColor=none;" parent="fX2MKnCIZ1Y0IGW4i7gZ-139" vertex="1">
          <mxGeometry x="80" y="72" width="210" height="720" as="geometry">
            <mxRectangle x="230" y="140" width="160" height="26" as="alternateBounds" />
          </mxGeometry>
        </mxCell>
        <mxCell id="HCuCCPsoGUSkc76l4n_5-104" value="signal request_create_new_server_signal" style="text;align=left;verticalAlign=middle;spacingLeft=4;spacingRight=4;overflow=hidden;rotatable=0;points=[[0,0.5],[1,0.5]];portConstraint=eastwest;fillColor=#1ba1e2;fontColor=#ffffff;strokeColor=#006EAF;" parent="HCuCCPsoGUSkc76l4n_5-31" vertex="1">
          <mxGeometry y="26" width="210" height="24" as="geometry" />
        </mxCell>
        <mxCell id="HCuCCPsoGUSkc76l4n_5-103" value="signal request_connect_to_server_signal" style="text;align=left;verticalAlign=middle;spacingLeft=4;spacingRight=4;overflow=hidden;rotatable=0;points=[[0,0.5],[1,0.5]];portConstraint=eastwest;fillColor=#1ba1e2;fontColor=#ffffff;strokeColor=#006EAF;" parent="HCuCCPsoGUSkc76l4n_5-31" vertex="1">
          <mxGeometry y="50" width="210" height="40" as="geometry" />
        </mxCell>
        <mxCell id="HCuCCPsoGUSkc76l4n_5-65" value="signal request_disconnect_from_server_signal" style="text;align=left;verticalAlign=middle;spacingLeft=4;spacingRight=4;overflow=hidden;rotatable=0;points=[[0,0.5],[1,0.5]];portConstraint=eastwest;fillColor=#1ba1e2;fontColor=#ffffff;strokeColor=#006EAF;" parent="HCuCCPsoGUSkc76l4n_5-31" vertex="1">
          <mxGeometry y="90" width="210" height="20" as="geometry" />
        </mxCell>
        <mxCell id="HCuCCPsoGUSkc76l4n_5-102" value="" style="line;html=1;strokeWidth=1;align=left;verticalAlign=middle;spacingTop=-1;spacingLeft=3;spacingRight=3;rotatable=0;labelPosition=right;points=[];portConstraint=eastwest;" parent="HCuCCPsoGUSkc76l4n_5-31" vertex="1">
          <mxGeometry y="110" width="210" height="8" as="geometry" />
        </mxCell>
        <mxCell id="WXUMpDyl50409upAGo6d-6" value="main_menu: MainMenu" style="text;align=left;verticalAlign=middle;spacingLeft=4;spacingRight=4;overflow=hidden;rotatable=0;points=[[0,0.5],[1,0.5]];portConstraint=eastwest;fillColor=#d80073;fontColor=#ffffff;strokeColor=#A50040;" parent="HCuCCPsoGUSkc76l4n_5-31" vertex="1">
          <mxGeometry y="118" width="210" height="22" as="geometry" />
        </mxCell>
        <mxCell id="WXUMpDyl50409upAGo6d-5" value="debug_log: DebugLog" style="text;align=left;verticalAlign=middle;spacingLeft=4;spacingRight=4;overflow=hidden;rotatable=0;points=[[0,0.5],[1,0.5]];portConstraint=eastwest;fillColor=#d80073;fontColor=#ffffff;strokeColor=#A50040;" parent="HCuCCPsoGUSkc76l4n_5-31" vertex="1">
          <mxGeometry y="140" width="210" height="22" as="geometry" />
        </mxCell>
        <mxCell id="WXUMpDyl50409upAGo6d-4" value="lobby: Lobby" style="text;align=left;verticalAlign=middle;spacingLeft=4;spacingRight=4;overflow=hidden;rotatable=0;points=[[0,0.5],[1,0.5]];portConstraint=eastwest;fillColor=#d80073;fontColor=#ffffff;strokeColor=#A50040;" parent="HCuCCPsoGUSkc76l4n_5-31" vertex="1">
          <mxGeometry y="162" width="210" height="22" as="geometry" />
        </mxCell>
        <mxCell id="WXUMpDyl50409upAGo6d-2" value="world: WorldUI" style="text;align=left;verticalAlign=middle;spacingLeft=4;spacingRight=4;overflow=hidden;rotatable=0;points=[[0,0.5],[1,0.5]];portConstraint=eastwest;fillColor=#d80073;fontColor=#ffffff;strokeColor=#A50040;" parent="HCuCCPsoGUSkc76l4n_5-31" vertex="1">
          <mxGeometry y="184" width="210" height="22" as="geometry" />
        </mxCell>
        <mxCell id="WXUMpDyl50409upAGo6d-3" value="credits: Credits" style="text;align=left;verticalAlign=middle;spacingLeft=4;spacingRight=4;overflow=hidden;rotatable=0;points=[[0,0.5],[1,0.5]];portConstraint=eastwest;fillColor=#d80073;fontColor=#ffffff;strokeColor=#A50040;" parent="HCuCCPsoGUSkc76l4n_5-31" vertex="1">
          <mxGeometry y="206" width="210" height="22" as="geometry" />
        </mxCell>
        <mxCell id="LxlmvngEwypOwOj6dEhx-9" value="_screens: Dictionary" style="text;align=left;verticalAlign=middle;spacingLeft=4;spacingRight=4;overflow=hidden;rotatable=0;points=[[0,0.5],[1,0.5]];portConstraint=eastwest;fillColor=#d80073;fontColor=#ffffff;strokeColor=#A50040;" parent="HCuCCPsoGUSkc76l4n_5-31" vertex="1">
          <mxGeometry y="228" width="210" height="22" as="geometry" />
        </mxCell>
        <mxCell id="LxlmvngEwypOwOj6dEhx-33" value="_ui_state: UIState" style="text;align=left;verticalAlign=middle;spacingLeft=4;spacingRight=4;overflow=hidden;rotatable=0;points=[[0,0.5],[1,0.5]];portConstraint=eastwest;fillColor=#6a00ff;fontColor=#ffffff;strokeColor=#3700CC;" parent="HCuCCPsoGUSkc76l4n_5-31" vertex="1">
          <mxGeometry y="250" width="210" height="22" as="geometry" />
        </mxCell>
        <mxCell id="LxlmvngEwypOwOj6dEhx-43" value="_new_ui_state: UIState" style="text;align=left;verticalAlign=middle;spacingLeft=4;spacingRight=4;overflow=hidden;rotatable=0;points=[[0,0.5],[1,0.5]];portConstraint=eastwest;fillColor=#6a00ff;fontColor=#ffffff;strokeColor=#3700CC;" parent="HCuCCPsoGUSkc76l4n_5-31" vertex="1">
          <mxGeometry y="272" width="210" height="38" as="geometry" />
        </mxCell>
        <mxCell id="LxlmvngEwypOwOj6dEhx-7" value="" style="line;html=1;strokeWidth=1;align=left;verticalAlign=middle;spacingTop=-1;spacingLeft=3;spacingRight=3;rotatable=0;labelPosition=right;points=[];portConstraint=eastwest;" parent="HCuCCPsoGUSkc76l4n_5-31" vertex="1">
          <mxGeometry y="310" width="210" height="8" as="geometry" />
        </mxCell>
        <mxCell id="HCuCCPsoGUSkc76l4n_5-34" value="_ready()" style="text;align=left;verticalAlign=middle;spacingLeft=4;spacingRight=4;overflow=hidden;rotatable=0;points=[[0,0.5],[1,0.5]];portConstraint=eastwest;fillColor=#a20025;fontColor=#ffffff;strokeColor=#6F0000;" parent="HCuCCPsoGUSkc76l4n_5-31" vertex="1">
          <mxGeometry y="318" width="210" height="38" as="geometry" />
        </mxCell>
        <mxCell id="HCuCCPsoGUSkc76l4n_5-26" value="_process()" style="text;align=left;verticalAlign=middle;spacingLeft=4;spacingRight=4;overflow=hidden;rotatable=0;points=[[0,0.5],[1,0.5]];portConstraint=eastwest;fillColor=#e3c800;fontColor=#000000;strokeColor=#B09500;" parent="HCuCCPsoGUSkc76l4n_5-31" vertex="1">
          <mxGeometry y="356" width="210" height="44" as="geometry" />
        </mxCell>
        <mxCell id="HCuCCPsoGUSkc76l4n_5-33" value="" style="line;html=1;strokeWidth=1;align=left;verticalAlign=middle;spacingTop=-1;spacingLeft=3;spacingRight=3;rotatable=0;labelPosition=right;points=[];portConstraint=eastwest;" parent="HCuCCPsoGUSkc76l4n_5-31" vertex="1">
          <mxGeometry y="400" width="210" height="8" as="geometry" />
        </mxCell>
        <mxCell id="HCuCCPsoGUSkc76l4n_5-25" value="_check_state()" style="text;align=left;verticalAlign=middle;spacingLeft=4;spacingRight=4;overflow=hidden;rotatable=0;points=[[0,0.5],[1,0.5]];portConstraint=eastwest;fillColor=#a20025;fontColor=#ffffff;strokeColor=#6F0000;" parent="HCuCCPsoGUSkc76l4n_5-31" vertex="1">
          <mxGeometry y="408" width="210" height="46" as="geometry" />
        </mxCell>
        <mxCell id="HCuCCPsoGUSkc76l4n_5-128" value="" style="line;html=1;strokeWidth=1;align=left;verticalAlign=middle;spacingTop=-1;spacingLeft=3;spacingRight=3;rotatable=0;labelPosition=right;points=[];portConstraint=eastwest;" parent="HCuCCPsoGUSkc76l4n_5-31" vertex="1">
          <mxGeometry y="454" width="210" height="8" as="geometry" />
        </mxCell>
        <mxCell id="HCuCCPsoGUSkc76l4n_5-44" value="close_all()" style="text;align=left;verticalAlign=middle;spacingLeft=4;spacingRight=4;overflow=hidden;rotatable=0;points=[[0,0.5],[1,0.5]];portConstraint=eastwest;strokeColor=default;" parent="HCuCCPsoGUSkc76l4n_5-31" vertex="1">
          <mxGeometry y="462" width="210" height="22" as="geometry" />
        </mxCell>
        <mxCell id="HCuCCPsoGUSkc76l4n_5-37" value="request_create_server()" style="text;align=left;verticalAlign=middle;spacingLeft=4;spacingRight=4;overflow=hidden;rotatable=0;points=[[0,0.5],[1,0.5]];portConstraint=eastwest;strokeColor=default;" parent="HCuCCPsoGUSkc76l4n_5-31" vertex="1">
          <mxGeometry y="484" width="210" height="32" as="geometry" />
        </mxCell>
        <mxCell id="HCuCCPsoGUSkc76l4n_5-36" value="request_disconnect_from_server()" style="text;align=left;verticalAlign=middle;spacingLeft=4;spacingRight=4;overflow=hidden;rotatable=0;points=[[0,0.5],[1,0.5]];portConstraint=eastwest;strokeColor=default;" parent="HCuCCPsoGUSkc76l4n_5-31" vertex="1">
          <mxGeometry y="516" width="210" height="30" as="geometry" />
        </mxCell>
        <mxCell id="HCuCCPsoGUSkc76l4n_5-28" value="set_ui_state()" style="text;align=left;verticalAlign=middle;spacingLeft=4;spacingRight=4;overflow=hidden;rotatable=0;points=[[0,0.5],[1,0.5]];portConstraint=eastwest;fillColor=#a20025;fontColor=#ffffff;strokeColor=#6F0000;" parent="HCuCCPsoGUSkc76l4n_5-31" vertex="1">
          <mxGeometry y="546" width="210" height="74" as="geometry" />
        </mxCell>
        <mxCell id="HCuCCPsoGUSkc76l4n_5-129" value="" style="line;html=1;strokeWidth=1;align=left;verticalAlign=middle;spacingTop=-1;spacingLeft=3;spacingRight=3;rotatable=0;labelPosition=right;points=[];portConstraint=eastwest;" parent="HCuCCPsoGUSkc76l4n_5-31" vertex="1">
          <mxGeometry y="620" width="210" height="8" as="geometry" />
        </mxCell>
        <mxCell id="HCuCCPsoGUSkc76l4n_5-49" value="_on_connection_success()" style="text;align=left;verticalAlign=middle;spacingLeft=4;spacingRight=4;overflow=hidden;rotatable=0;points=[[0,0.5],[1,0.5]];portConstraint=eastwest;fillColor=#e3c800;fontColor=#000000;strokeColor=#B09500;" parent="HCuCCPsoGUSkc76l4n_5-31" vertex="1">
          <mxGeometry y="628" width="210" height="20" as="geometry" />
        </mxCell>
        <mxCell id="HCuCCPsoGUSkc76l4n_5-45" value="_on_connection_failed()" style="text;align=left;verticalAlign=middle;spacingLeft=4;spacingRight=4;overflow=hidden;rotatable=0;points=[[0,0.5],[1,0.5]];portConstraint=eastwest;strokeColor=default;" parent="HCuCCPsoGUSkc76l4n_5-31" vertex="1">
          <mxGeometry y="648" width="210" height="32" as="geometry" />
        </mxCell>
        <mxCell id="HCuCCPsoGUSkc76l4n_5-48" value="_on_connect_request()" style="text;align=left;verticalAlign=middle;spacingLeft=4;spacingRight=4;overflow=hidden;rotatable=0;points=[[0,0.5],[1,0.5]];portConstraint=eastwest;strokeColor=default;" parent="HCuCCPsoGUSkc76l4n_5-31" vertex="1">
          <mxGeometry y="680" width="210" height="20" as="geometry" />
        </mxCell>
        <mxCell id="HCuCCPsoGUSkc76l4n_5-40" value="_on_create_host_request()" style="text;align=left;verticalAlign=middle;spacingLeft=4;spacingRight=4;overflow=hidden;rotatable=0;points=[[0,0.5],[1,0.5]];portConstraint=eastwest;strokeColor=default;" parent="HCuCCPsoGUSkc76l4n_5-31" vertex="1">
          <mxGeometry y="700" width="210" height="20" as="geometry" />
        </mxCell>
        <mxCell id="LxlmvngEwypOwOj6dEhx-6" value="" style="endArrow=classic;html=1;rounded=0;edgeStyle=orthogonalEdgeStyle;fillColor=#e3c800;strokeColor=#B09500;" parent="HCuCCPsoGUSkc76l4n_5-31" source="HCuCCPsoGUSkc76l4n_5-26" target="HCuCCPsoGUSkc76l4n_5-25" edge="1">
          <mxGeometry width="50" height="50" relative="1" as="geometry">
            <mxPoint x="220" y="179" as="sourcePoint" />
            <mxPoint x="330" y="30" as="targetPoint" />
            <Array as="points">
              <mxPoint x="-10" y="360" />
              <mxPoint x="-10" y="411" />
            </Array>
          </mxGeometry>
        </mxCell>
        <mxCell id="LxlmvngEwypOwOj6dEhx-35" value="" style="endArrow=classic;html=1;rounded=0;edgeStyle=orthogonalEdgeStyle;" parent="HCuCCPsoGUSkc76l4n_5-31" source="HCuCCPsoGUSkc76l4n_5-25" target="HCuCCPsoGUSkc76l4n_5-44" edge="1">
          <mxGeometry width="50" height="50" relative="1" as="geometry">
            <mxPoint x="10" y="192" as="sourcePoint" />
            <mxPoint x="10" y="220" as="targetPoint" />
            <Array as="points">
              <mxPoint x="-10" y="420" />
              <mxPoint x="-10" y="480" />
            </Array>
          </mxGeometry>
        </mxCell>
        <mxCell id="LxlmvngEwypOwOj6dEhx-36" value="" style="endArrow=classic;html=1;rounded=0;edgeStyle=orthogonalEdgeStyle;fillColor=#a20025;strokeColor=#6F0000;" parent="HCuCCPsoGUSkc76l4n_5-31" source="HCuCCPsoGUSkc76l4n_5-25" target="LxlmvngEwypOwOj6dEhx-33" edge="1">
          <mxGeometry width="50" height="50" relative="1" as="geometry">
            <mxPoint x="10" y="230" as="sourcePoint" />
            <mxPoint x="10" y="259" as="targetPoint" />
            <Array as="points">
              <mxPoint x="230" y="430" />
              <mxPoint x="230" y="261" />
            </Array>
          </mxGeometry>
        </mxCell>
        <mxCell id="LxlmvngEwypOwOj6dEhx-44" value="" style="endArrow=classic;html=1;rounded=0;edgeStyle=orthogonalEdgeStyle;fillColor=#a20025;strokeColor=#6F0000;" parent="HCuCCPsoGUSkc76l4n_5-31" source="HCuCCPsoGUSkc76l4n_5-25" target="LxlmvngEwypOwOj6dEhx-43" edge="1">
          <mxGeometry width="50" height="50" relative="1" as="geometry">
            <mxPoint x="10" y="260" as="sourcePoint" />
            <mxPoint x="10" y="289" as="targetPoint" />
            <Array as="points">
              <mxPoint x="220" y="420" />
              <mxPoint x="220" y="280" />
            </Array>
          </mxGeometry>
        </mxCell>
        <mxCell id="LxlmvngEwypOwOj6dEhx-46" value="" style="endArrow=classic;html=1;rounded=0;edgeStyle=orthogonalEdgeStyle;fillColor=#a20025;strokeColor=#6F0000;" parent="HCuCCPsoGUSkc76l4n_5-31" source="HCuCCPsoGUSkc76l4n_5-34" target="LxlmvngEwypOwOj6dEhx-9" edge="1">
          <mxGeometry width="50" height="50" relative="1" as="geometry">
            <mxPoint x="10" y="240" as="sourcePoint" />
            <mxPoint x="10" y="270" as="targetPoint" />
            <Array as="points">
              <mxPoint x="-30" y="320" />
              <mxPoint x="-30" y="230" />
            </Array>
          </mxGeometry>
        </mxCell>
        <mxCell id="LxlmvngEwypOwOj6dEhx-47" value="" style="endArrow=classic;html=1;rounded=0;edgeStyle=orthogonalEdgeStyle;" parent="HCuCCPsoGUSkc76l4n_5-31" source="HCuCCPsoGUSkc76l4n_5-37" target="HCuCCPsoGUSkc76l4n_5-104" edge="1">
          <mxGeometry width="50" height="50" relative="1" as="geometry">
            <mxPoint x="220" y="320" as="sourcePoint" />
            <mxPoint x="330" y="40" as="targetPoint" />
            <Array as="points">
              <mxPoint x="240" y="490" />
              <mxPoint x="240" y="40" />
            </Array>
          </mxGeometry>
        </mxCell>
        <mxCell id="LxlmvngEwypOwOj6dEhx-48" value="" style="endArrow=classic;html=1;rounded=0;edgeStyle=orthogonalEdgeStyle;" parent="HCuCCPsoGUSkc76l4n_5-31" source="HCuCCPsoGUSkc76l4n_5-36" target="HCuCCPsoGUSkc76l4n_5-65" edge="1">
          <mxGeometry width="50" height="50" relative="1" as="geometry">
            <mxPoint x="220" y="339" as="sourcePoint" />
            <mxPoint x="220" y="50" as="targetPoint" />
            <Array as="points">
              <mxPoint x="250" y="530" />
              <mxPoint x="250" y="100" />
            </Array>
          </mxGeometry>
        </mxCell>
        <mxCell id="LxlmvngEwypOwOj6dEhx-49" value="" style="endArrow=classic;html=1;rounded=0;edgeStyle=orthogonalEdgeStyle;fillColor=#a20025;strokeColor=#6F0000;" parent="HCuCCPsoGUSkc76l4n_5-31" source="HCuCCPsoGUSkc76l4n_5-28" target="LxlmvngEwypOwOj6dEhx-43" edge="1">
          <mxGeometry width="50" height="50" relative="1" as="geometry">
            <mxPoint x="220" y="360" as="sourcePoint" />
            <mxPoint x="220" y="90" as="targetPoint" />
            <Array as="points">
              <mxPoint x="280" y="570" />
              <mxPoint x="280" y="291" />
            </Array>
          </mxGeometry>
        </mxCell>
        <mxCell id="LxlmvngEwypOwOj6dEhx-52" value="" style="endArrow=classic;html=1;rounded=0;edgeStyle=orthogonalEdgeStyle;fillColor=#e3c800;strokeColor=#B09500;" parent="HCuCCPsoGUSkc76l4n_5-31" source="HCuCCPsoGUSkc76l4n_5-49" target="HCuCCPsoGUSkc76l4n_5-28" edge="1">
          <mxGeometry width="50" height="50" relative="1" as="geometry">
            <mxPoint x="220" y="360" as="sourcePoint" />
            <mxPoint x="220" y="90" as="targetPoint" />
            <Array as="points">
              <mxPoint x="230" y="638" />
              <mxPoint x="230" y="610" />
            </Array>
          </mxGeometry>
        </mxCell>
        <mxCell id="LxlmvngEwypOwOj6dEhx-54" value="" style="endArrow=classic;html=1;rounded=0;edgeStyle=orthogonalEdgeStyle;" parent="HCuCCPsoGUSkc76l4n_5-31" source="HCuCCPsoGUSkc76l4n_5-48" target="HCuCCPsoGUSkc76l4n_5-103" edge="1">
          <mxGeometry width="50" height="50" relative="1" as="geometry">
            <mxPoint x="220" y="460" as="sourcePoint" />
            <mxPoint x="425" y="311" as="targetPoint" />
            <Array as="points">
              <mxPoint x="260" y="690" />
              <mxPoint x="260" y="60" />
            </Array>
          </mxGeometry>
        </mxCell>
        <mxCell id="LxlmvngEwypOwOj6dEhx-59" value="" style="endArrow=classic;html=1;rounded=0;edgeStyle=orthogonalEdgeStyle;fillColor=#a20025;strokeColor=#6F0000;" parent="HCuCCPsoGUSkc76l4n_5-31" source="HCuCCPsoGUSkc76l4n_5-34" target="LxlmvngEwypOwOj6dEhx-33" edge="1">
          <mxGeometry width="50" height="50" relative="1" as="geometry">
            <mxPoint x="-40" y="209" as="sourcePoint" />
            <mxPoint x="-30" y="139" as="targetPoint" />
            <Array as="points">
              <mxPoint x="-10" y="340" />
              <mxPoint x="-10" y="250" />
            </Array>
          </mxGeometry>
        </mxCell>
        <mxCell id="LxlmvngEwypOwOj6dEhx-60" value="" style="endArrow=classic;html=1;rounded=0;edgeStyle=orthogonalEdgeStyle;fillColor=#a20025;strokeColor=#6F0000;" parent="HCuCCPsoGUSkc76l4n_5-31" source="HCuCCPsoGUSkc76l4n_5-34" target="LxlmvngEwypOwOj6dEhx-43" edge="1">
          <mxGeometry width="50" height="50" relative="1" as="geometry">
            <mxPoint x="10" y="219" as="sourcePoint" />
            <mxPoint x="10" y="149" as="targetPoint" />
            <Array as="points">
              <mxPoint x="-20" y="330" />
              <mxPoint x="-20" y="283" />
            </Array>
          </mxGeometry>
        </mxCell>
        <mxCell id="HCuCCPsoGUSkc76l4n_5-50" value="UIScreen" style="swimlane;fontStyle=2;align=center;verticalAlign=top;childLayout=stackLayout;horizontal=1;startSize=26;horizontalStack=0;resizeParent=1;resizeLast=0;collapsible=1;marginBottom=0;rounded=0;shadow=0;strokeWidth=1;fillColor=#d80073;fontColor=#ffffff;strokeColor=#A50040;" parent="fX2MKnCIZ1Y0IGW4i7gZ-139" vertex="1">
          <mxGeometry x="430" y="112" width="190" height="138" as="geometry">
            <mxRectangle x="230" y="140" width="160" height="26" as="alternateBounds" />
          </mxGeometry>
        </mxCell>
        <mxCell id="HCuCCPsoGUSkc76l4n_5-51" value="setup()" style="text;align=left;verticalAlign=middle;spacingLeft=4;spacingRight=4;overflow=hidden;rotatable=0;points=[[0,0.5],[1,0.5]];portConstraint=eastwest;strokeColor=default;" parent="HCuCCPsoGUSkc76l4n_5-50" vertex="1">
          <mxGeometry y="26" width="190" height="54" as="geometry" />
        </mxCell>
        <mxCell id="HCuCCPsoGUSkc76l4n_5-53" value="enable()" style="text;align=left;verticalAlign=middle;spacingLeft=4;spacingRight=4;overflow=hidden;rotatable=0;points=[[0,0.5],[1,0.5]];portConstraint=eastwest;strokeColor=default;" parent="HCuCCPsoGUSkc76l4n_5-50" vertex="1">
          <mxGeometry y="80" width="190" height="50" as="geometry" />
        </mxCell>
        <mxCell id="HCuCCPsoGUSkc76l4n_5-52" value="" style="line;html=1;strokeWidth=1;align=left;verticalAlign=middle;spacingTop=-1;spacingLeft=3;spacingRight=3;rotatable=0;labelPosition=right;points=[];portConstraint=eastwest;" parent="HCuCCPsoGUSkc76l4n_5-50" vertex="1">
          <mxGeometry y="130" width="190" height="8" as="geometry" />
        </mxCell>
        <mxCell id="HCuCCPsoGUSkc76l4n_5-70" value="Lobby" style="swimlane;fontStyle=2;align=center;verticalAlign=top;childLayout=stackLayout;horizontal=1;startSize=26;horizontalStack=0;resizeParent=1;resizeLast=0;collapsible=1;marginBottom=0;rounded=0;shadow=0;strokeWidth=1;" parent="fX2MKnCIZ1Y0IGW4i7gZ-139" vertex="1">
          <mxGeometry x="1140" y="542" width="210" height="198" as="geometry">
            <mxRectangle x="230" y="140" width="160" height="26" as="alternateBounds" />
          </mxGeometry>
        </mxCell>
        <mxCell id="WXUMpDyl50409upAGo6d-13" value="start_game_button: Button" style="text;align=left;verticalAlign=middle;spacingLeft=4;spacingRight=4;overflow=hidden;rotatable=0;points=[[0,0.5],[1,0.5]];portConstraint=eastwest;fillColor=#d80073;fontColor=#ffffff;strokeColor=#A50040;" parent="HCuCCPsoGUSkc76l4n_5-70" vertex="1">
          <mxGeometry y="26" width="210" height="24" as="geometry" />
        </mxCell>
        <mxCell id="WXUMpDyl50409upAGo6d-12" value="" style="line;html=1;strokeWidth=1;align=left;verticalAlign=middle;spacingTop=-1;spacingLeft=3;spacingRight=3;rotatable=0;labelPosition=right;points=[];portConstraint=eastwest;" parent="HCuCCPsoGUSkc76l4n_5-70" vertex="1">
          <mxGeometry y="50" width="210" height="8" as="geometry" />
        </mxCell>
        <mxCell id="HCuCCPsoGUSkc76l4n_5-71" value="setup()" style="text;align=left;verticalAlign=middle;spacingLeft=4;spacingRight=4;overflow=hidden;rotatable=0;points=[[0,0.5],[1,0.5]];portConstraint=eastwest;" parent="HCuCCPsoGUSkc76l4n_5-70" vertex="1">
          <mxGeometry y="58" width="210" height="24" as="geometry" />
        </mxCell>
        <mxCell id="HCuCCPsoGUSkc76l4n_5-73" value="enable()" style="text;align=left;verticalAlign=middle;spacingLeft=4;spacingRight=4;overflow=hidden;rotatable=0;points=[[0,0.5],[1,0.5]];portConstraint=eastwest;" parent="HCuCCPsoGUSkc76l4n_5-70" vertex="1">
          <mxGeometry y="82" width="210" height="20" as="geometry" />
        </mxCell>
        <mxCell id="HCuCCPsoGUSkc76l4n_5-145" value="" style="line;html=1;strokeWidth=1;align=left;verticalAlign=middle;spacingTop=-1;spacingLeft=3;spacingRight=3;rotatable=0;labelPosition=right;points=[];portConstraint=eastwest;" parent="HCuCCPsoGUSkc76l4n_5-70" vertex="1">
          <mxGeometry y="102" width="210" height="8" as="geometry" />
        </mxCell>
        <mxCell id="HCuCCPsoGUSkc76l4n_5-41" value="_show_start_game_button()" style="text;align=left;verticalAlign=middle;spacingLeft=4;spacingRight=4;overflow=hidden;rotatable=0;points=[[0,0.5],[1,0.5]];portConstraint=eastwest;" parent="HCuCCPsoGUSkc76l4n_5-70" vertex="1">
          <mxGeometry y="110" width="210" height="18" as="geometry" />
        </mxCell>
        <mxCell id="HCuCCPsoGUSkc76l4n_5-144" value="" style="line;html=1;strokeWidth=1;align=left;verticalAlign=middle;spacingTop=-1;spacingLeft=3;spacingRight=3;rotatable=0;labelPosition=right;points=[];portConstraint=eastwest;" parent="HCuCCPsoGUSkc76l4n_5-70" vertex="1">
          <mxGeometry y="128" width="210" height="8" as="geometry" />
        </mxCell>
        <mxCell id="HCuCCPsoGUSkc76l4n_5-63" value="_on_dissconnect_button_pressed()" style="text;align=left;verticalAlign=middle;spacingLeft=4;spacingRight=4;overflow=hidden;rotatable=0;points=[[0,0.5],[1,0.5]];portConstraint=eastwest;fillColor=#e3c800;fontColor=#000000;strokeColor=#B09500;" parent="HCuCCPsoGUSkc76l4n_5-70" vertex="1">
          <mxGeometry y="136" width="210" height="34" as="geometry" />
        </mxCell>
        <mxCell id="HCuCCPsoGUSkc76l4n_5-62" value="_on_start_game_button_pressed()" style="text;align=left;verticalAlign=middle;spacingLeft=4;spacingRight=4;overflow=hidden;rotatable=0;points=[[0,0.5],[1,0.5]];portConstraint=eastwest;fillColor=#e3c800;fontColor=#000000;strokeColor=#B09500;" parent="HCuCCPsoGUSkc76l4n_5-70" vertex="1">
          <mxGeometry y="170" width="210" height="20" as="geometry" />
        </mxCell>
        <mxCell id="HCuCCPsoGUSkc76l4n_5-72" value="" style="line;html=1;strokeWidth=1;align=left;verticalAlign=bottom;spacingTop=-1;spacingLeft=3;spacingRight=3;rotatable=0;labelPosition=right;points=[];portConstraint=eastwest;" parent="HCuCCPsoGUSkc76l4n_5-70" vertex="1">
          <mxGeometry y="190" width="210" height="8" as="geometry" />
        </mxCell>
        <mxCell id="LxlmvngEwypOwOj6dEhx-76" style="edgeStyle=orthogonalEdgeStyle;rounded=0;orthogonalLoop=1;jettySize=auto;html=1;" parent="HCuCCPsoGUSkc76l4n_5-70" source="HCuCCPsoGUSkc76l4n_5-71" target="HCuCCPsoGUSkc76l4n_5-41" edge="1">
          <mxGeometry relative="1" as="geometry">
            <Array as="points">
              <mxPoint x="220" y="70" />
              <mxPoint x="220" y="120" />
            </Array>
            <mxPoint x="230" y="50" as="sourcePoint" />
            <mxPoint x="230" y="75" as="targetPoint" />
          </mxGeometry>
        </mxCell>
        <mxCell id="HCuCCPsoGUSkc76l4n_5-74" value="Credits" style="swimlane;fontStyle=2;align=center;verticalAlign=top;childLayout=stackLayout;horizontal=1;startSize=26;horizontalStack=0;resizeParent=1;resizeLast=0;collapsible=1;marginBottom=0;rounded=0;shadow=0;strokeWidth=1;" parent="fX2MKnCIZ1Y0IGW4i7gZ-139" vertex="1">
          <mxGeometry x="1140" y="782" width="190" height="138" as="geometry">
            <mxRectangle x="230" y="140" width="160" height="26" as="alternateBounds" />
          </mxGeometry>
        </mxCell>
        <mxCell id="HCuCCPsoGUSkc76l4n_5-75" value="setup()" style="text;align=left;verticalAlign=middle;spacingLeft=4;spacingRight=4;overflow=hidden;rotatable=0;points=[[0,0.5],[1,0.5]];portConstraint=eastwest;" parent="HCuCCPsoGUSkc76l4n_5-74" vertex="1">
          <mxGeometry y="26" width="190" height="24" as="geometry" />
        </mxCell>
        <mxCell id="HCuCCPsoGUSkc76l4n_5-77" value="enable()" style="text;align=left;verticalAlign=middle;spacingLeft=4;spacingRight=4;overflow=hidden;rotatable=0;points=[[0,0.5],[1,0.5]];portConstraint=eastwest;" parent="HCuCCPsoGUSkc76l4n_5-74" vertex="1">
          <mxGeometry y="50" width="190" height="20" as="geometry" />
        </mxCell>
        <mxCell id="HCuCCPsoGUSkc76l4n_5-76" value="" style="line;html=1;strokeWidth=1;align=left;verticalAlign=middle;spacingTop=-1;spacingLeft=3;spacingRight=3;rotatable=0;labelPosition=right;points=[];portConstraint=eastwest;" parent="HCuCCPsoGUSkc76l4n_5-74" vertex="1">
          <mxGeometry y="70" width="190" height="8" as="geometry" />
        </mxCell>
        <mxCell id="HCuCCPsoGUSkc76l4n_5-64" value="_on_button_pressed()" style="text;align=left;verticalAlign=middle;spacingLeft=4;spacingRight=4;overflow=hidden;rotatable=0;points=[[0,0.5],[1,0.5]];portConstraint=eastwest;fillColor=#e3c800;fontColor=#000000;strokeColor=#B09500;" parent="HCuCCPsoGUSkc76l4n_5-74" vertex="1">
          <mxGeometry y="78" width="190" height="22" as="geometry" />
        </mxCell>
        <mxCell id="HCuCCPsoGUSkc76l4n_5-78" value="WorldUI" style="swimlane;fontStyle=2;align=center;verticalAlign=top;childLayout=stackLayout;horizontal=1;startSize=26;horizontalStack=0;resizeParent=1;resizeLast=0;collapsible=1;marginBottom=0;rounded=0;shadow=0;strokeWidth=1;" parent="fX2MKnCIZ1Y0IGW4i7gZ-139" vertex="1">
          <mxGeometry x="1130" y="972" width="190" height="138" as="geometry">
            <mxRectangle x="230" y="140" width="160" height="26" as="alternateBounds" />
          </mxGeometry>
        </mxCell>
        <mxCell id="HCuCCPsoGUSkc76l4n_5-80" value="" style="line;html=1;strokeWidth=1;align=left;verticalAlign=middle;spacingTop=-1;spacingLeft=3;spacingRight=3;rotatable=0;labelPosition=right;points=[];portConstraint=eastwest;" parent="HCuCCPsoGUSkc76l4n_5-78" vertex="1">
          <mxGeometry y="26" width="190" height="8" as="geometry" />
        </mxCell>
        <mxCell id="HCuCCPsoGUSkc76l4n_5-81" value="setup()" style="text;align=left;verticalAlign=top;spacingLeft=4;spacingRight=4;overflow=hidden;rotatable=0;points=[[0,0.5],[1,0.5]];portConstraint=eastwest;" parent="HCuCCPsoGUSkc76l4n_5-78" vertex="1">
          <mxGeometry y="34" width="190" height="26" as="geometry" />
        </mxCell>
        <mxCell id="HCuCCPsoGUSkc76l4n_5-82" value="enable()" style="text;align=left;verticalAlign=top;spacingLeft=4;spacingRight=4;overflow=hidden;rotatable=0;points=[[0,0.5],[1,0.5]];portConstraint=eastwest;" parent="HCuCCPsoGUSkc76l4n_5-78" vertex="1">
          <mxGeometry y="60" width="190" height="20" as="geometry" />
        </mxCell>
        <mxCell id="LxlmvngEwypOwOj6dEhx-2" value="" style="endArrow=classic;html=1;rounded=0;edgeStyle=orthogonalEdgeStyle;" parent="fX2MKnCIZ1Y0IGW4i7gZ-139" source="HCuCCPsoGUSkc76l4n_5-26" target="HCuCCPsoGUSkc76l4n_5-51" edge="1">
          <mxGeometry width="50" height="50" relative="1" as="geometry">
            <mxPoint x="-690" y="399" as="sourcePoint" />
            <mxPoint x="-760" y="-269" as="targetPoint" />
            <Array as="points">
              <mxPoint x="670" y="442" />
              <mxPoint x="670" y="160" />
            </Array>
          </mxGeometry>
        </mxCell>
        <mxCell id="LxlmvngEwypOwOj6dEhx-3" value="" style="endArrow=classic;html=1;rounded=0;edgeStyle=orthogonalEdgeStyle;" parent="fX2MKnCIZ1Y0IGW4i7gZ-139" source="HCuCCPsoGUSkc76l4n_5-26" target="HCuCCPsoGUSkc76l4n_5-53" edge="1">
          <mxGeometry width="50" height="50" relative="1" as="geometry">
            <mxPoint x="-760" y="390" as="sourcePoint" />
            <mxPoint x="-650" y="231" as="targetPoint" />
            <Array as="points">
              <mxPoint x="680" y="450" />
              <mxPoint x="680" y="212" />
            </Array>
          </mxGeometry>
        </mxCell>
        <mxCell id="LxlmvngEwypOwOj6dEhx-37" value="" style="endArrow=classic;html=1;rounded=0;edgeStyle=orthogonalEdgeStyle;" parent="fX2MKnCIZ1Y0IGW4i7gZ-139" source="HCuCCPsoGUSkc76l4n_5-44" target="HCuCCPsoGUSkc76l4n_5-53" edge="1">
          <mxGeometry width="50" height="50" relative="1" as="geometry">
            <mxPoint x="-760" y="421" as="sourcePoint" />
            <mxPoint x="-650" y="251" as="targetPoint" />
            <Array as="points">
              <mxPoint x="390" y="545" />
              <mxPoint x="390" y="212" />
            </Array>
          </mxGeometry>
        </mxCell>
        <mxCell id="LxlmvngEwypOwOj6dEhx-53" value="" style="endArrow=classic;html=1;rounded=0;edgeStyle=orthogonalEdgeStyle;fillColor=#e3c800;strokeColor=#B09500;" parent="fX2MKnCIZ1Y0IGW4i7gZ-139" source="HCuCCPsoGUSkc76l4n_5-45" target="HCuCCPsoGUSkc76l4n_5-61" edge="1">
          <mxGeometry width="50" height="50" relative="1" as="geometry">
            <mxPoint x="-760" y="661" as="sourcePoint" />
            <mxPoint x="-760" y="611" as="targetPoint" />
            <Array as="points">
              <mxPoint x="940" y="732" />
              <mxPoint x="940" y="412" />
              <mxPoint x="1250" y="412" />
            </Array>
          </mxGeometry>
        </mxCell>
        <mxCell id="LxlmvngEwypOwOj6dEhx-57" value="" style="endArrow=classic;html=1;rounded=0;edgeStyle=orthogonalEdgeStyle;" parent="fX2MKnCIZ1Y0IGW4i7gZ-139" source="HCuCCPsoGUSkc76l4n_5-42" target="HCuCCPsoGUSkc76l4n_5-37" edge="1">
          <mxGeometry width="50" height="50" relative="1" as="geometry">
            <mxPoint x="-760" y="661" as="sourcePoint" />
            <mxPoint x="-555" y="471" as="targetPoint" />
            <Array as="points">
              <mxPoint x="990" y="462" />
              <mxPoint x="990" y="572" />
            </Array>
          </mxGeometry>
        </mxCell>
        <mxCell id="LxlmvngEwypOwOj6dEhx-58" value="" style="endArrow=classic;html=1;rounded=0;edgeStyle=orthogonalEdgeStyle;" parent="fX2MKnCIZ1Y0IGW4i7gZ-139" source="HCuCCPsoGUSkc76l4n_5-43" target="HCuCCPsoGUSkc76l4n_5-103" edge="1">
          <mxGeometry width="50" height="50" relative="1" as="geometry">
            <mxPoint x="-555" y="501" as="sourcePoint" />
            <mxPoint x="-760" y="571" as="targetPoint" />
            <Array as="points">
              <mxPoint x="1250" y="501" />
              <mxPoint x="350" y="501" />
              <mxPoint x="350" y="142" />
            </Array>
          </mxGeometry>
        </mxCell>
        <mxCell id="LxlmvngEwypOwOj6dEhx-63" value="" style="endArrow=classic;html=1;rounded=0;edgeStyle=orthogonalEdgeStyle;fillColor=#d80073;strokeColor=#A50040;" parent="fX2MKnCIZ1Y0IGW4i7gZ-139" source="HCuCCPsoGUSkc76l4n_5-51" target="HCuCCPsoGUSkc76l4n_5-56" edge="1">
          <mxGeometry width="50" height="50" relative="1" as="geometry">
            <mxPoint x="-760" y="463" as="sourcePoint" />
            <mxPoint x="-650" y="231" as="targetPoint" />
            <Array as="points">
              <mxPoint x="800" y="152" />
              <mxPoint x="800" y="285" />
            </Array>
          </mxGeometry>
        </mxCell>
        <mxCell id="HCuCCPsoGUSkc76l4n_5-55" value="MainMenu" style="swimlane;fontStyle=2;align=center;verticalAlign=middle;childLayout=stackLayout;horizontal=1;startSize=26;horizontalStack=0;resizeParent=1;resizeLast=0;collapsible=1;marginBottom=0;rounded=0;shadow=0;strokeWidth=1;" parent="fX2MKnCIZ1Y0IGW4i7gZ-139" vertex="1">
          <mxGeometry x="1140" y="112" width="220" height="408" as="geometry">
            <mxRectangle x="230" y="140" width="160" height="26" as="alternateBounds" />
          </mxGeometry>
        </mxCell>
        <mxCell id="WXUMpDyl50409upAGo6d-8" value="host_button: Button" style="text;align=left;verticalAlign=middle;spacingLeft=4;spacingRight=4;overflow=hidden;rotatable=0;points=[[0,0.5],[1,0.5]];portConstraint=eastwest;fillColor=#d80073;fontColor=#ffffff;strokeColor=#A50040;" parent="HCuCCPsoGUSkc76l4n_5-55" vertex="1">
          <mxGeometry y="26" width="220" height="24" as="geometry" />
        </mxCell>
        <mxCell id="WXUMpDyl50409upAGo6d-9" value="connect_button: Button" style="text;align=left;verticalAlign=middle;spacingLeft=4;spacingRight=4;overflow=hidden;rotatable=0;points=[[0,0.5],[1,0.5]];portConstraint=eastwest;fillColor=#d80073;fontColor=#ffffff;strokeColor=#A50040;" parent="HCuCCPsoGUSkc76l4n_5-55" vertex="1">
          <mxGeometry y="50" width="220" height="24" as="geometry" />
        </mxCell>
        <mxCell id="WXUMpDyl50409upAGo6d-10" value="connect_server_ip_textbox: LineEdit" style="text;align=left;verticalAlign=middle;spacingLeft=4;spacingRight=4;overflow=hidden;rotatable=0;points=[[0,0.5],[1,0.5]];portConstraint=eastwest;fillColor=#d80073;fontColor=#ffffff;strokeColor=#A50040;" parent="HCuCCPsoGUSkc76l4n_5-55" vertex="1">
          <mxGeometry y="74" width="220" height="24" as="geometry" />
        </mxCell>
        <mxCell id="WXUMpDyl50409upAGo6d-11" value="game: GSGGame" style="text;align=left;verticalAlign=middle;spacingLeft=4;spacingRight=4;overflow=hidden;rotatable=0;points=[[0,0.5],[1,0.5]];portConstraint=eastwest;fillColor=#d80073;fontColor=#ffffff;strokeColor=#A50040;" parent="HCuCCPsoGUSkc76l4n_5-55" vertex="1">
          <mxGeometry y="98" width="220" height="24" as="geometry" />
        </mxCell>
        <mxCell id="WXUMpDyl50409upAGo6d-7" value="" style="line;html=1;strokeWidth=1;align=left;verticalAlign=middle;spacingTop=-1;spacingLeft=3;spacingRight=3;rotatable=0;labelPosition=right;points=[];portConstraint=eastwest;" parent="HCuCCPsoGUSkc76l4n_5-55" vertex="1">
          <mxGeometry y="122" width="220" height="8" as="geometry" />
        </mxCell>
        <mxCell id="HCuCCPsoGUSkc76l4n_5-47" value="_process()" style="text;align=left;verticalAlign=top;spacingLeft=4;spacingRight=4;overflow=hidden;rotatable=0;points=[[0,0.5],[1,0.5]];portConstraint=eastwest;fillColor=#e3c800;fontColor=#000000;strokeColor=#B09500;" parent="HCuCCPsoGUSkc76l4n_5-55" vertex="1">
          <mxGeometry y="130" width="220" height="24" as="geometry" />
        </mxCell>
        <mxCell id="LxlmvngEwypOwOj6dEhx-55" value="" style="line;html=1;strokeWidth=1;align=left;verticalAlign=middle;spacingTop=-1;spacingLeft=3;spacingRight=3;rotatable=0;labelPosition=right;points=[];portConstraint=eastwest;" parent="HCuCCPsoGUSkc76l4n_5-55" vertex="1">
          <mxGeometry y="154" width="220" height="8" as="geometry" />
        </mxCell>
        <mxCell id="HCuCCPsoGUSkc76l4n_5-56" value="setup()" style="text;align=left;verticalAlign=middle;spacingLeft=4;spacingRight=4;overflow=hidden;rotatable=0;points=[[0,0.5],[1,0.5]];portConstraint=eastwest;" parent="HCuCCPsoGUSkc76l4n_5-55" vertex="1">
          <mxGeometry y="162" width="220" height="22" as="geometry" />
        </mxCell>
        <mxCell id="HCuCCPsoGUSkc76l4n_5-58" value="enable()" style="text;align=left;verticalAlign=middle;spacingLeft=4;spacingRight=4;overflow=hidden;rotatable=0;points=[[0,0.5],[1,0.5]];portConstraint=eastwest;" parent="HCuCCPsoGUSkc76l4n_5-55" vertex="1">
          <mxGeometry y="184" width="220" height="20" as="geometry" />
        </mxCell>
        <mxCell id="HCuCCPsoGUSkc76l4n_5-38" value="handle_host_button()" style="text;align=left;verticalAlign=middle;spacingLeft=4;spacingRight=4;overflow=hidden;rotatable=0;points=[[0,0.5],[1,0.5]];portConstraint=eastwest;fillColor=#a20025;fontColor=#ffffff;strokeColor=#6F0000;" parent="HCuCCPsoGUSkc76l4n_5-55" vertex="1">
          <mxGeometry y="204" width="220" height="46" as="geometry" />
        </mxCell>
        <mxCell id="HCuCCPsoGUSkc76l4n_5-39" value="check_connection_status_for_buttons()" style="text;align=left;verticalAlign=top;spacingLeft=4;spacingRight=4;overflow=hidden;rotatable=0;points=[[0,0.5],[1,0.5]];portConstraint=eastwest;fillColor=#e3c800;fontColor=#000000;strokeColor=#B09500;" parent="HCuCCPsoGUSkc76l4n_5-55" vertex="1">
          <mxGeometry y="250" width="220" height="30" as="geometry" />
        </mxCell>
        <mxCell id="HCuCCPsoGUSkc76l4n_5-60" value="handle_connect_button()" style="text;align=left;verticalAlign=top;spacingLeft=4;spacingRight=4;overflow=hidden;rotatable=0;points=[[0,0.5],[1,0.5]];portConstraint=eastwest;fillColor=#a20025;fontColor=#ffffff;strokeColor=#6F0000;" parent="HCuCCPsoGUSkc76l4n_5-55" vertex="1">
          <mxGeometry y="280" width="220" height="30" as="geometry" />
        </mxCell>
        <mxCell id="HCuCCPsoGUSkc76l4n_5-61" value="clear_ip_text()" style="text;align=left;verticalAlign=top;spacingLeft=4;spacingRight=4;overflow=hidden;rotatable=0;points=[[0,0.5],[1,0.5]];portConstraint=eastwest;fillColor=#a20025;fontColor=#ffffff;strokeColor=#6F0000;" parent="HCuCCPsoGUSkc76l4n_5-55" vertex="1">
          <mxGeometry y="310" width="220" height="22" as="geometry" />
        </mxCell>
        <mxCell id="HCuCCPsoGUSkc76l4n_5-57" value="" style="line;html=1;strokeWidth=1;align=left;verticalAlign=middle;spacingTop=-1;spacingLeft=3;spacingRight=3;rotatable=0;labelPosition=right;points=[];portConstraint=eastwest;" parent="HCuCCPsoGUSkc76l4n_5-55" vertex="1">
          <mxGeometry y="332" width="220" height="8" as="geometry" />
        </mxCell>
        <mxCell id="HCuCCPsoGUSkc76l4n_5-42" value="_on_host_button_pressed()" style="text;align=left;verticalAlign=middle;spacingLeft=4;spacingRight=4;overflow=hidden;rotatable=0;points=[[0,0.5],[1,0.5]];portConstraint=eastwest;" parent="HCuCCPsoGUSkc76l4n_5-55" vertex="1">
          <mxGeometry y="340" width="220" height="20" as="geometry" />
        </mxCell>
        <mxCell id="HCuCCPsoGUSkc76l4n_5-43" value="_on_connect_button_pressed()" style="text;align=left;verticalAlign=middle;spacingLeft=4;spacingRight=4;overflow=hidden;rotatable=0;points=[[0,0.5],[1,0.5]];portConstraint=eastwest;" parent="HCuCCPsoGUSkc76l4n_5-55" vertex="1">
          <mxGeometry y="360" width="220" height="20" as="geometry" />
        </mxCell>
        <mxCell id="HCuCCPsoGUSkc76l4n_5-59" value="_on_credit_button_pressed()" style="text;align=left;verticalAlign=middle;spacingLeft=4;spacingRight=4;overflow=hidden;rotatable=0;points=[[0,0.5],[1,0.5]];portConstraint=eastwest;fillColor=#e3c800;fontColor=#000000;strokeColor=#B09500;" parent="HCuCCPsoGUSkc76l4n_5-55" vertex="1">
          <mxGeometry y="380" width="220" height="20" as="geometry" />
        </mxCell>
        <mxCell id="LxlmvngEwypOwOj6dEhx-56" value="" style="line;html=1;strokeWidth=1;align=left;verticalAlign=middle;spacingTop=-1;spacingLeft=3;spacingRight=3;rotatable=0;labelPosition=right;points=[];portConstraint=eastwest;" parent="HCuCCPsoGUSkc76l4n_5-55" vertex="1">
          <mxGeometry y="400" width="220" height="8" as="geometry" />
        </mxCell>
        <mxCell id="LxlmvngEwypOwOj6dEhx-61" style="edgeStyle=orthogonalEdgeStyle;rounded=0;orthogonalLoop=1;jettySize=auto;html=1;fillColor=#e3c800;strokeColor=#B09500;" parent="HCuCCPsoGUSkc76l4n_5-55" source="HCuCCPsoGUSkc76l4n_5-47" target="HCuCCPsoGUSkc76l4n_5-39" edge="1">
          <mxGeometry relative="1" as="geometry">
            <Array as="points">
              <mxPoint x="-15" y="142" />
              <mxPoint x="-15" y="250" />
            </Array>
            <mxPoint x="-15" y="280" as="sourcePoint" />
            <mxPoint x="-5" y="120" as="targetPoint" />
          </mxGeometry>
        </mxCell>
        <mxCell id="LxlmvngEwypOwOj6dEhx-66" style="edgeStyle=orthogonalEdgeStyle;rounded=0;orthogonalLoop=1;jettySize=auto;html=1;" parent="HCuCCPsoGUSkc76l4n_5-55" source="HCuCCPsoGUSkc76l4n_5-39" target="HCuCCPsoGUSkc76l4n_5-38" edge="1">
          <mxGeometry relative="1" as="geometry">
            <Array as="points">
              <mxPoint x="230" y="260" />
              <mxPoint x="230" y="230" />
            </Array>
            <mxPoint x="10" y="48" as="sourcePoint" />
            <mxPoint x="10" y="140" as="targetPoint" />
          </mxGeometry>
        </mxCell>
        <mxCell id="LxlmvngEwypOwOj6dEhx-68" style="edgeStyle=orthogonalEdgeStyle;rounded=0;orthogonalLoop=1;jettySize=auto;html=1;fillColor=#e3c800;strokeColor=#B09500;" parent="HCuCCPsoGUSkc76l4n_5-55" source="HCuCCPsoGUSkc76l4n_5-39" target="HCuCCPsoGUSkc76l4n_5-60" edge="1">
          <mxGeometry relative="1" as="geometry">
            <Array as="points">
              <mxPoint x="230" y="270" />
              <mxPoint x="230" y="290" />
            </Array>
            <mxPoint x="230" y="140" as="sourcePoint" />
            <mxPoint x="230" y="120" as="targetPoint" />
          </mxGeometry>
        </mxCell>
        <mxCell id="LxlmvngEwypOwOj6dEhx-65" value="" style="endArrow=classic;html=1;rounded=0;edgeStyle=orthogonalEdgeStyle;fillColor=#d80073;strokeColor=#A50040;" parent="fX2MKnCIZ1Y0IGW4i7gZ-139" source="HCuCCPsoGUSkc76l4n_5-53" target="HCuCCPsoGUSkc76l4n_5-58" edge="1">
          <mxGeometry width="50" height="50" relative="1" as="geometry">
            <mxPoint x="-400" y="229" as="sourcePoint" />
            <mxPoint x="-280" y="251" as="targetPoint" />
            <Array as="points">
              <mxPoint x="980" y="222" />
              <mxPoint x="980" y="302" />
            </Array>
          </mxGeometry>
        </mxCell>
        <mxCell id="LxlmvngEwypOwOj6dEhx-71" value="" style="endArrow=classic;html=1;rounded=0;edgeStyle=orthogonalEdgeStyle;fillColor=#e3c800;strokeColor=#B09500;" parent="fX2MKnCIZ1Y0IGW4i7gZ-139" source="HCuCCPsoGUSkc76l4n_5-59" target="HCuCCPsoGUSkc76l4n_5-28" edge="1">
          <mxGeometry width="50" height="50" relative="1" as="geometry">
            <mxPoint x="-165" y="470.4699999999998" as="sourcePoint" />
            <mxPoint x="-170" y="470" as="targetPoint" />
            <Array as="points">
              <mxPoint x="1250" y="525" />
              <mxPoint x="580" y="525" />
              <mxPoint x="580" y="632" />
            </Array>
          </mxGeometry>
        </mxCell>
        <mxCell id="LxlmvngEwypOwOj6dEhx-72" value="" style="endArrow=classic;html=1;rounded=0;edgeStyle=orthogonalEdgeStyle;fillColor=#d80073;strokeColor=#A50040;" parent="fX2MKnCIZ1Y0IGW4i7gZ-139" source="HCuCCPsoGUSkc76l4n_5-51" target="HCuCCPsoGUSkc76l4n_5-71" edge="1">
          <mxGeometry width="50" height="50" relative="1" as="geometry">
            <mxPoint x="-80" y="241" as="sourcePoint" />
            <mxPoint x="80" y="241" as="targetPoint" />
            <Array as="points">
              <mxPoint x="880" y="172" />
              <mxPoint x="880" y="612" />
            </Array>
          </mxGeometry>
        </mxCell>
        <mxCell id="LxlmvngEwypOwOj6dEhx-73" value="" style="endArrow=classic;html=1;rounded=0;edgeStyle=orthogonalEdgeStyle;fillColor=#d80073;strokeColor=#A50040;" parent="fX2MKnCIZ1Y0IGW4i7gZ-139" source="HCuCCPsoGUSkc76l4n_5-53" target="HCuCCPsoGUSkc76l4n_5-73" edge="1">
          <mxGeometry width="50" height="50" relative="1" as="geometry">
            <mxPoint x="-80" y="296" as="sourcePoint" />
            <mxPoint x="80" y="261" as="targetPoint" />
            <Array as="points">
              <mxPoint x="850" y="202" />
              <mxPoint x="850" y="632" />
            </Array>
          </mxGeometry>
        </mxCell>
        <mxCell id="LxlmvngEwypOwOj6dEhx-74" value="" style="endArrow=classic;html=1;rounded=0;edgeStyle=orthogonalEdgeStyle;fillColor=#d80073;strokeColor=#A50040;" parent="fX2MKnCIZ1Y0IGW4i7gZ-139" source="HCuCCPsoGUSkc76l4n_5-51" target="HCuCCPsoGUSkc76l4n_5-75" edge="1">
          <mxGeometry width="50" height="50" relative="1" as="geometry">
            <mxPoint x="-80" y="249" as="sourcePoint" />
            <mxPoint x="80" y="569" as="targetPoint" />
            <Array as="points">
              <mxPoint x="740" y="182" />
              <mxPoint x="740" y="822" />
            </Array>
          </mxGeometry>
        </mxCell>
        <mxCell id="LxlmvngEwypOwOj6dEhx-75" value="" style="endArrow=classic;html=1;rounded=0;edgeStyle=orthogonalEdgeStyle;fillColor=#d80073;strokeColor=#A50040;" parent="fX2MKnCIZ1Y0IGW4i7gZ-139" source="HCuCCPsoGUSkc76l4n_5-53" target="HCuCCPsoGUSkc76l4n_5-77" edge="1">
          <mxGeometry width="50" height="50" relative="1" as="geometry">
            <mxPoint x="-80" y="291" as="sourcePoint" />
            <mxPoint x="80" y="591" as="targetPoint" />
            <Array as="points">
              <mxPoint x="400" y="222" />
              <mxPoint x="400" y="842" />
            </Array>
          </mxGeometry>
        </mxCell>
        <mxCell id="LxlmvngEwypOwOj6dEhx-77" style="edgeStyle=orthogonalEdgeStyle;rounded=0;orthogonalLoop=1;jettySize=auto;html=1;" parent="fX2MKnCIZ1Y0IGW4i7gZ-139" source="HCuCCPsoGUSkc76l4n_5-63" target="HCuCCPsoGUSkc76l4n_5-36" edge="1">
          <mxGeometry relative="1" as="geometry">
            <Array as="points">
              <mxPoint x="520" y="691" />
              <mxPoint x="520" y="612" />
            </Array>
            <mxPoint x="290" y="571" as="sourcePoint" />
            <mxPoint x="-170" y="631" as="targetPoint" />
          </mxGeometry>
        </mxCell>
        <mxCell id="LxlmvngEwypOwOj6dEhx-79" style="edgeStyle=orthogonalEdgeStyle;rounded=0;orthogonalLoop=1;jettySize=auto;html=1;fillColor=#e3c800;strokeColor=#B09500;" parent="fX2MKnCIZ1Y0IGW4i7gZ-139" source="HCuCCPsoGUSkc76l4n_5-63" target="HCuCCPsoGUSkc76l4n_5-28" edge="1">
          <mxGeometry relative="1" as="geometry">
            <Array as="points">
              <mxPoint x="1100" y="702" />
              <mxPoint x="1100" y="741" />
              <mxPoint x="500" y="741" />
              <mxPoint x="500" y="672" />
            </Array>
            <mxPoint x="80" y="643" as="sourcePoint" />
            <mxPoint x="-760" y="601" as="targetPoint" />
          </mxGeometry>
        </mxCell>
        <mxCell id="LxlmvngEwypOwOj6dEhx-80" value="" style="edgeStyle=orthogonalEdgeStyle;rounded=0;orthogonalLoop=1;jettySize=auto;html=1;fillColor=#e3c800;strokeColor=#B09500;" parent="fX2MKnCIZ1Y0IGW4i7gZ-139" source="HCuCCPsoGUSkc76l4n_5-62" target="HCuCCPsoGUSkc76l4n_5-28" edge="1">
          <mxGeometry relative="1" as="geometry">
            <Array as="points">
              <mxPoint x="1120" y="722" />
              <mxPoint x="1120" y="763" />
              <mxPoint x="540" y="763" />
              <mxPoint x="540" y="662" />
            </Array>
            <mxPoint x="80" y="653" as="sourcePoint" />
            <mxPoint x="-760" y="653" as="targetPoint" />
          </mxGeometry>
        </mxCell>
        <mxCell id="RuJngxMLq8GJr4KWlcAt-13" value="LobbyPlayer" style="swimlane;fontStyle=2;align=center;verticalAlign=top;childLayout=stackLayout;horizontal=1;startSize=26;horizontalStack=0;resizeParent=1;resizeLast=0;collapsible=1;marginBottom=0;rounded=0;shadow=0;strokeWidth=1;" parent="fX2MKnCIZ1Y0IGW4i7gZ-139" vertex="1">
          <mxGeometry x="1700" y="472" width="210" height="400" as="geometry">
            <mxRectangle x="230" y="140" width="160" height="26" as="alternateBounds" />
          </mxGeometry>
        </mxCell>
        <mxCell id="RuJngxMLq8GJr4KWlcAt-14" value="_player_number: int" style="text;align=left;verticalAlign=bottom;spacingLeft=4;spacingRight=4;overflow=hidden;rotatable=0;points=[[0,0.5],[1,0.5]];portConstraint=eastwest;fillColor=#6a00ff;fontColor=#ffffff;strokeColor=#3700CC;" parent="RuJngxMLq8GJr4KWlcAt-13" vertex="1">
          <mxGeometry y="26" width="210" height="34" as="geometry" />
        </mxCell>
        <mxCell id="WXUMpDyl50409upAGo6d-15" value="player_label: Label" style="text;align=left;verticalAlign=bottom;spacingLeft=4;spacingRight=4;overflow=hidden;rotatable=0;points=[[0,0.5],[1,0.5]];portConstraint=eastwest;fillColor=#6a00ff;fontColor=#ffffff;strokeColor=#3700CC;" parent="RuJngxMLq8GJr4KWlcAt-13" vertex="1">
          <mxGeometry y="60" width="210" height="24" as="geometry" />
        </mxCell>
        <mxCell id="WXUMpDyl50409upAGo6d-16" value="color_picker: ColorPickerButton" style="text;align=left;verticalAlign=bottom;spacingLeft=4;spacingRight=4;overflow=hidden;rotatable=0;points=[[0,0.5],[1,0.5]];portConstraint=eastwest;fillColor=#6a00ff;fontColor=#ffffff;strokeColor=#3700CC;" parent="RuJngxMLq8GJr4KWlcAt-13" vertex="1">
          <mxGeometry y="84" width="210" height="24" as="geometry" />
        </mxCell>
        <mxCell id="WXUMpDyl50409upAGo6d-17" value="ready_button: Button" style="text;align=left;verticalAlign=bottom;spacingLeft=4;spacingRight=4;overflow=hidden;rotatable=0;points=[[0,0.5],[1,0.5]];portConstraint=eastwest;fillColor=#6a00ff;fontColor=#ffffff;strokeColor=#3700CC;" parent="RuJngxMLq8GJr4KWlcAt-13" vertex="1">
          <mxGeometry y="108" width="210" height="24" as="geometry" />
        </mxCell>
        <mxCell id="RuJngxMLq8GJr4KWlcAt-23" value="" style="line;html=1;strokeWidth=1;align=left;verticalAlign=middle;spacingTop=-1;spacingLeft=3;spacingRight=3;rotatable=0;labelPosition=right;points=[];portConstraint=eastwest;" parent="RuJngxMLq8GJr4KWlcAt-13" vertex="1">
          <mxGeometry y="132" width="210" height="8" as="geometry" />
        </mxCell>
        <mxCell id="fX2MKnCIZ1Y0IGW4i7gZ-253" style="edgeStyle=orthogonalEdgeStyle;rounded=0;orthogonalLoop=1;jettySize=auto;html=1;fillColor=#a20025;strokeColor=#6F0000;" edge="1" parent="RuJngxMLq8GJr4KWlcAt-13" source="RuJngxMLq8GJr4KWlcAt-15" target="WXUMpDyl50409upAGo6d-16">
          <mxGeometry relative="1" as="geometry">
            <Array as="points">
              <mxPoint x="230" y="140" />
              <mxPoint x="230" y="86" />
            </Array>
          </mxGeometry>
        </mxCell>
        <mxCell id="RuJngxMLq8GJr4KWlcAt-15" value="_ready()" style="text;align=left;verticalAlign=bottom;spacingLeft=4;spacingRight=4;overflow=hidden;rotatable=0;points=[[0,0.5],[1,0.5]];portConstraint=eastwest;fillColor=#a20025;fontColor=#ffffff;strokeColor=#6F0000;" parent="RuJngxMLq8GJr4KWlcAt-13" vertex="1">
          <mxGeometry y="140" width="210" height="20" as="geometry" />
        </mxCell>
        <mxCell id="RuJngxMLq8GJr4KWlcAt-24" value="_process()" style="text;align=left;verticalAlign=bottom;spacingLeft=4;spacingRight=4;overflow=hidden;rotatable=0;points=[[0,0.5],[1,0.5]];portConstraint=eastwest;strokeColor=default;" parent="RuJngxMLq8GJr4KWlcAt-13" vertex="1">
          <mxGeometry y="160" width="210" height="20" as="geometry" />
        </mxCell>
        <mxCell id="RuJngxMLq8GJr4KWlcAt-16" value="" style="line;html=1;strokeWidth=1;align=left;verticalAlign=middle;spacingTop=-1;spacingLeft=3;spacingRight=3;rotatable=0;labelPosition=right;points=[];portConstraint=eastwest;" parent="RuJngxMLq8GJr4KWlcAt-13" vertex="1">
          <mxGeometry y="180" width="210" height="8" as="geometry" />
        </mxCell>
        <mxCell id="RuJngxMLq8GJr4KWlcAt-17" value="update()" style="text;align=left;verticalAlign=middle;spacingLeft=4;spacingRight=4;overflow=hidden;rotatable=0;points=[[0,0.5],[1,0.5]];portConstraint=eastwest;strokeColor=#B09500;fillColor=#e3c800;fontColor=#000000;" parent="RuJngxMLq8GJr4KWlcAt-13" vertex="1">
          <mxGeometry y="188" width="210" height="52" as="geometry" />
        </mxCell>
        <mxCell id="RuJngxMLq8GJr4KWlcAt-18" value="" style="line;html=1;strokeWidth=1;align=left;verticalAlign=middle;spacingTop=-1;spacingLeft=3;spacingRight=3;rotatable=0;labelPosition=right;points=[];portConstraint=eastwest;" parent="RuJngxMLq8GJr4KWlcAt-13" vertex="1">
          <mxGeometry y="240" width="210" height="8" as="geometry" />
        </mxCell>
        <mxCell id="fX2MKnCIZ1Y0IGW4i7gZ-247" style="edgeStyle=orthogonalEdgeStyle;rounded=0;orthogonalLoop=1;jettySize=auto;html=1;fillColor=#008a00;strokeColor=#005700;" edge="1" parent="RuJngxMLq8GJr4KWlcAt-13" source="RuJngxMLq8GJr4KWlcAt-19" target="RuJngxMLq8GJr4KWlcAt-14">
          <mxGeometry relative="1" as="geometry">
            <Array as="points">
              <mxPoint x="220" y="260" />
              <mxPoint x="220" y="38" />
            </Array>
          </mxGeometry>
        </mxCell>
        <mxCell id="RuJngxMLq8GJr4KWlcAt-19" value="_set_title()" style="text;align=left;verticalAlign=middle;spacingLeft=4;spacingRight=4;overflow=hidden;rotatable=0;points=[[0,0.5],[1,0.5]];portConstraint=eastwest;strokeColor=#6F0000;fillColor=#a20025;fontColor=#ffffff;" parent="RuJngxMLq8GJr4KWlcAt-13" vertex="1">
          <mxGeometry y="248" width="210" height="30" as="geometry" />
        </mxCell>
        <mxCell id="fX2MKnCIZ1Y0IGW4i7gZ-256" style="edgeStyle=orthogonalEdgeStyle;rounded=0;orthogonalLoop=1;jettySize=auto;html=1;fillColor=#a20025;strokeColor=#6F0000;" edge="1" parent="RuJngxMLq8GJr4KWlcAt-13" source="RuJngxMLq8GJr4KWlcAt-28" target="WXUMpDyl50409upAGo6d-16">
          <mxGeometry relative="1" as="geometry">
            <Array as="points">
              <mxPoint x="-50" y="300" />
              <mxPoint x="-50" y="96" />
            </Array>
          </mxGeometry>
        </mxCell>
        <mxCell id="RuJngxMLq8GJr4KWlcAt-28" value="_set_color_picker()" style="text;align=left;verticalAlign=middle;spacingLeft=4;spacingRight=4;overflow=hidden;rotatable=0;points=[[0,0.5],[1,0.5]];portConstraint=eastwest;strokeColor=#6F0000;fillColor=#a20025;fontColor=#ffffff;" parent="RuJngxMLq8GJr4KWlcAt-13" vertex="1">
          <mxGeometry y="278" width="210" height="32" as="geometry" />
        </mxCell>
        <mxCell id="fX2MKnCIZ1Y0IGW4i7gZ-254" style="edgeStyle=orthogonalEdgeStyle;rounded=0;orthogonalLoop=1;jettySize=auto;html=1;fillColor=#a20025;strokeColor=#6F0000;" edge="1" parent="RuJngxMLq8GJr4KWlcAt-13" source="RuJngxMLq8GJr4KWlcAt-29" target="WXUMpDyl50409upAGo6d-17">
          <mxGeometry relative="1" as="geometry">
            <mxPoint x="-20" y="330" as="sourcePoint" />
            <Array as="points">
              <mxPoint x="-40" y="320" />
              <mxPoint x="-40" y="120" />
            </Array>
          </mxGeometry>
        </mxCell>
        <mxCell id="RuJngxMLq8GJr4KWlcAt-29" value="_set_ready_button()" style="text;align=left;verticalAlign=middle;spacingLeft=4;spacingRight=4;overflow=hidden;rotatable=0;points=[[0,0.5],[1,0.5]];portConstraint=eastwest;strokeColor=#6F0000;fillColor=#a20025;fontColor=#ffffff;" parent="RuJngxMLq8GJr4KWlcAt-13" vertex="1">
          <mxGeometry y="310" width="210" height="20" as="geometry" />
        </mxCell>
        <mxCell id="RuJngxMLq8GJr4KWlcAt-21" value="" style="line;html=1;strokeWidth=1;align=left;verticalAlign=bottom;spacingTop=-1;spacingLeft=3;spacingRight=3;rotatable=0;labelPosition=right;points=[];portConstraint=eastwest;" parent="RuJngxMLq8GJr4KWlcAt-13" vertex="1">
          <mxGeometry y="330" width="210" height="8" as="geometry" />
        </mxCell>
        <mxCell id="RuJngxMLq8GJr4KWlcAt-20" value="_on_color_picker_button_color_changed()" style="text;align=left;verticalAlign=middle;spacingLeft=4;spacingRight=4;overflow=hidden;rotatable=0;points=[[0,0.5],[1,0.5]];portConstraint=eastwest;fillColor=#e3c800;fontColor=#000000;strokeColor=#B09500;" parent="RuJngxMLq8GJr4KWlcAt-13" vertex="1">
          <mxGeometry y="338" width="210" height="32" as="geometry" />
        </mxCell>
        <mxCell id="RuJngxMLq8GJr4KWlcAt-25" style="edgeStyle=orthogonalEdgeStyle;rounded=0;orthogonalLoop=1;jettySize=auto;html=1;" parent="RuJngxMLq8GJr4KWlcAt-13" source="RuJngxMLq8GJr4KWlcAt-24" target="RuJngxMLq8GJr4KWlcAt-17" edge="1">
          <mxGeometry relative="1" as="geometry">
            <Array as="points">
              <mxPoint x="-10" y="170" />
              <mxPoint x="-10" y="210" />
            </Array>
            <mxPoint x="-110" y="50" as="sourcePoint" />
            <mxPoint y="110" as="targetPoint" />
          </mxGeometry>
        </mxCell>
        <mxCell id="RuJngxMLq8GJr4KWlcAt-44" value="_on_ready_button_toggled()" style="text;align=left;verticalAlign=middle;spacingLeft=4;spacingRight=4;overflow=hidden;rotatable=0;points=[[0,0.5],[1,0.5]];portConstraint=eastwest;fillColor=#e3c800;fontColor=#000000;strokeColor=#B09500;" parent="RuJngxMLq8GJr4KWlcAt-13" vertex="1">
          <mxGeometry y="370" width="210" height="30" as="geometry" />
        </mxCell>
        <mxCell id="WXUMpDyl50409upAGo6d-18" style="edgeStyle=orthogonalEdgeStyle;rounded=0;orthogonalLoop=1;jettySize=auto;html=1;fillColor=#e3c800;strokeColor=#B09500;" parent="RuJngxMLq8GJr4KWlcAt-13" source="RuJngxMLq8GJr4KWlcAt-17" target="RuJngxMLq8GJr4KWlcAt-19" edge="1">
          <mxGeometry relative="1" as="geometry">
            <Array as="points">
              <mxPoint x="105" y="180" />
              <mxPoint x="230" y="180" />
              <mxPoint x="230" y="270" />
            </Array>
            <mxPoint x="289.98" y="151" as="sourcePoint" />
            <mxPoint x="289.98" y="181" as="targetPoint" />
          </mxGeometry>
        </mxCell>
        <mxCell id="WXUMpDyl50409upAGo6d-19" style="edgeStyle=orthogonalEdgeStyle;rounded=0;orthogonalLoop=1;jettySize=auto;html=1;fillColor=#e3c800;strokeColor=#B09500;" parent="RuJngxMLq8GJr4KWlcAt-13" source="RuJngxMLq8GJr4KWlcAt-17" target="RuJngxMLq8GJr4KWlcAt-28" edge="1">
          <mxGeometry relative="1" as="geometry">
            <Array as="points">
              <mxPoint x="240" y="190" />
              <mxPoint x="240" y="290" />
            </Array>
            <mxPoint x="220" y="200" as="sourcePoint" />
            <mxPoint x="220" y="241" as="targetPoint" />
          </mxGeometry>
        </mxCell>
        <mxCell id="WXUMpDyl50409upAGo6d-20" style="edgeStyle=orthogonalEdgeStyle;rounded=0;orthogonalLoop=1;jettySize=auto;html=1;fillColor=#e3c800;strokeColor=#B09500;" parent="RuJngxMLq8GJr4KWlcAt-13" source="RuJngxMLq8GJr4KWlcAt-17" target="RuJngxMLq8GJr4KWlcAt-29" edge="1">
          <mxGeometry relative="1" as="geometry">
            <Array as="points">
              <mxPoint x="250" y="210" />
              <mxPoint x="250" y="320" />
            </Array>
            <mxPoint x="230" y="210" as="sourcePoint" />
            <mxPoint x="230" y="251" as="targetPoint" />
          </mxGeometry>
        </mxCell>
        <mxCell id="fX2MKnCIZ1Y0IGW4i7gZ-252" style="edgeStyle=orthogonalEdgeStyle;rounded=0;orthogonalLoop=1;jettySize=auto;html=1;fillColor=#a20025;strokeColor=#6F0000;" edge="1" parent="RuJngxMLq8GJr4KWlcAt-13" source="RuJngxMLq8GJr4KWlcAt-19" target="WXUMpDyl50409upAGo6d-15">
          <mxGeometry relative="1" as="geometry">
            <mxPoint x="10" y="241" as="sourcePoint" />
            <mxPoint x="10" y="48" as="targetPoint" />
            <Array as="points">
              <mxPoint x="-30" y="260" />
              <mxPoint x="-30" y="70" />
            </Array>
          </mxGeometry>
        </mxCell>
        <mxCell id="fX2MKnCIZ1Y0IGW4i7gZ-255" style="edgeStyle=orthogonalEdgeStyle;rounded=0;orthogonalLoop=1;jettySize=auto;html=1;fillColor=#008a00;strokeColor=#005700;" edge="1" parent="RuJngxMLq8GJr4KWlcAt-13" source="RuJngxMLq8GJr4KWlcAt-17" target="RuJngxMLq8GJr4KWlcAt-14">
          <mxGeometry relative="1" as="geometry">
            <mxPoint x="10" y="260" as="sourcePoint" />
            <mxPoint x="10" y="48" as="targetPoint" />
            <Array as="points">
              <mxPoint x="-20" y="200" />
              <mxPoint x="-20" y="48" />
            </Array>
          </mxGeometry>
        </mxCell>
        <mxCell id="WXUMpDyl50409upAGo6d-14" value="" style="endArrow=classic;html=1;rounded=0;edgeStyle=orthogonalEdgeStyle;fillColor=#e3c800;strokeColor=#B09500;" parent="fX2MKnCIZ1Y0IGW4i7gZ-139" source="HCuCCPsoGUSkc76l4n_5-64" target="HCuCCPsoGUSkc76l4n_5-28" edge="1">
          <mxGeometry width="50" height="50" relative="1" as="geometry">
            <mxPoint x="-80" y="781" as="sourcePoint" />
            <mxPoint x="80" y="901" as="targetPoint" />
            <Array as="points">
              <mxPoint x="730" y="871" />
              <mxPoint x="730" y="872" />
              <mxPoint x="570" y="872" />
              <mxPoint x="570" y="652" />
            </Array>
          </mxGeometry>
        </mxCell>
        <mxCell id="fX2MKnCIZ1Y0IGW4i7gZ-224" style="edgeStyle=orthogonalEdgeStyle;rounded=0;orthogonalLoop=1;jettySize=auto;html=1;fillColor=#e3c800;strokeColor=#B09500;" edge="1" parent="WIyWlLk6GJQsqaUBKTNV-1" source="HCuCCPsoGUSkc76l4n_5-12" target="PAvOKs1-oqzffbysyNV3-33">
          <mxGeometry relative="1" as="geometry">
            <mxPoint x="570" y="1840" as="targetPoint" />
            <Array as="points">
              <mxPoint x="-160" y="1770" />
              <mxPoint x="-160" y="760" />
            </Array>
          </mxGeometry>
        </mxCell>
        <mxCell id="fX2MKnCIZ1Y0IGW4i7gZ-239" style="edgeStyle=orthogonalEdgeStyle;rounded=0;orthogonalLoop=1;jettySize=auto;html=1;fillColor=#008a00;strokeColor=#005700;" edge="1" parent="WIyWlLk6GJQsqaUBKTNV-1" source="HCuCCPsoGUSkc76l4n_5-15" target="PAvOKs1-oqzffbysyNV3-6">
          <mxGeometry relative="1" as="geometry">
            <Array as="points">
              <mxPoint x="1430" y="1770" />
              <mxPoint x="1430" y="110" />
              <mxPoint x="1170" y="110" />
              <mxPoint x="1170" y="202" />
              <mxPoint x="1055" y="202" />
            </Array>
          </mxGeometry>
        </mxCell>
        <mxCell id="fX2MKnCIZ1Y0IGW4i7gZ-248" style="edgeStyle=orthogonalEdgeStyle;rounded=0;orthogonalLoop=1;jettySize=auto;html=1;fillColor=#008a00;strokeColor=#005700;" edge="1" parent="WIyWlLk6GJQsqaUBKTNV-1" source="RuJngxMLq8GJr4KWlcAt-19" target="fX2MKnCIZ1Y0IGW4i7gZ-249">
          <mxGeometry relative="1" as="geometry">
            <mxPoint x="-110" y="750" as="targetPoint" />
            <Array as="points">
              <mxPoint x="2390" y="3090" />
              <mxPoint x="2390" y="3410" />
              <mxPoint x="360" y="3410" />
              <mxPoint x="360" y="600" />
            </Array>
          </mxGeometry>
        </mxCell>
        <mxCell id="fX2MKnCIZ1Y0IGW4i7gZ-251" style="edgeStyle=orthogonalEdgeStyle;rounded=0;orthogonalLoop=1;jettySize=auto;html=1;fillColor=#008a00;strokeColor=#005700;" edge="1" parent="WIyWlLk6GJQsqaUBKTNV-1" source="RuJngxMLq8GJr4KWlcAt-28" target="PAvOKs1-oqzffbysyNV3-26">
          <mxGeometry relative="1" as="geometry">
            <mxPoint x="-180" y="610" as="targetPoint" />
            <mxPoint x="2600" y="3065" as="sourcePoint" />
            <Array as="points">
              <mxPoint x="2530" y="3110" />
              <mxPoint x="2530" y="3500" />
              <mxPoint x="370" y="3500" />
              <mxPoint x="370" y="610" />
              <mxPoint x="-80" y="610" />
              <mxPoint x="-80" y="540" />
            </Array>
          </mxGeometry>
        </mxCell>
        <mxCell id="fX2MKnCIZ1Y0IGW4i7gZ-257" style="edgeStyle=orthogonalEdgeStyle;rounded=0;orthogonalLoop=1;jettySize=auto;html=1;fillColor=#008a00;strokeColor=#005700;" edge="1" parent="WIyWlLk6GJQsqaUBKTNV-1" source="RuJngxMLq8GJr4KWlcAt-20" target="fX2MKnCIZ1Y0IGW4i7gZ-249">
          <mxGeometry relative="1" as="geometry">
            <mxPoint x="-180" y="550" as="targetPoint" />
            <mxPoint x="2600" y="3120" as="sourcePoint" />
            <Array as="points">
              <mxPoint x="2540" y="3170" />
              <mxPoint x="2540" y="3510" />
              <mxPoint x="380" y="3510" />
              <mxPoint x="380" y="620" />
              <mxPoint x="-110" y="620" />
              <mxPoint x="-110" y="610" />
            </Array>
          </mxGeometry>
        </mxCell>
        <mxCell id="PAvOKs1-oqzffbysyNV3-52" value="" style="endArrow=classic;html=1;rounded=0;edgeStyle=orthogonalEdgeStyle;fillColor=#e3c800;strokeColor=#B09500;" parent="WIyWlLk6GJQsqaUBKTNV-1" edge="1">
          <mxGeometry width="50" height="50" relative="1" as="geometry">
            <mxPoint x="-380" y="770.0022580645161" as="sourcePoint" />
            <mxPoint x="-380" y="640.0022580645161" as="targetPoint" />
            <Array as="points">
              <mxPoint x="-430" y="769.97" />
              <mxPoint x="-430" y="639.97" />
            </Array>
          </mxGeometry>
        </mxCell>
        <mxCell id="fX2MKnCIZ1Y0IGW4i7gZ-258" style="edgeStyle=orthogonalEdgeStyle;rounded=0;orthogonalLoop=1;jettySize=auto;html=1;fillColor=#008a00;strokeColor=#005700;" edge="1" parent="WIyWlLk6GJQsqaUBKTNV-1" source="RuJngxMLq8GJr4KWlcAt-20" target="PAvOKs1-oqzffbysyNV3-43">
          <mxGeometry relative="1" as="geometry" />
        </mxCell>
        <mxCell id="fX2MKnCIZ1Y0IGW4i7gZ-259" style="edgeStyle=orthogonalEdgeStyle;rounded=0;orthogonalLoop=1;jettySize=auto;html=1;fillColor=#e3c800;strokeColor=#B09500;" edge="1" parent="WIyWlLk6GJQsqaUBKTNV-1" source="RuJngxMLq8GJr4KWlcAt-20" target="PAvOKs1-oqzffbysyNV3-31">
          <mxGeometry relative="1" as="geometry" />
        </mxCell>
        <mxCell id="fX2MKnCIZ1Y0IGW4i7gZ-260" style="edgeStyle=orthogonalEdgeStyle;rounded=0;orthogonalLoop=1;jettySize=auto;html=1;fillColor=#e3c800;strokeColor=#B09500;" edge="1" parent="WIyWlLk6GJQsqaUBKTNV-1" source="RuJngxMLq8GJr4KWlcAt-44" target="PAvOKs1-oqzffbysyNV3-32">
          <mxGeometry relative="1" as="geometry">
            <mxPoint x="2600" y="3179" as="sourcePoint" />
            <mxPoint x="-180" y="705" as="targetPoint" />
          </mxGeometry>
        </mxCell>
        <mxCell id="fX2MKnCIZ1Y0IGW4i7gZ-261" style="edgeStyle=orthogonalEdgeStyle;rounded=0;orthogonalLoop=1;jettySize=auto;html=1;fillColor=#008a00;strokeColor=#005700;" edge="1" parent="WIyWlLk6GJQsqaUBKTNV-1" source="RuJngxMLq8GJr4KWlcAt-44" target="fX2MKnCIZ1Y0IGW4i7gZ-249">
          <mxGeometry relative="1" as="geometry">
            <mxPoint x="-180" y="620" as="targetPoint" />
            <mxPoint x="2600" y="3180" as="sourcePoint" />
            <Array as="points">
              <mxPoint x="2550" y="3210" />
              <mxPoint x="2550" y="3520" />
              <mxPoint x="390" y="3520" />
              <mxPoint x="390" y="630" />
              <mxPoint x="-100" y="630" />
              <mxPoint x="-100" y="620" />
            </Array>
          </mxGeometry>
        </mxCell>
      </root>
    </mxGraphModel>
  </diagram>
</mxfile>
